<mxfile host="Electron" modified="2024-07-17T15:50:40.626Z" agent="Mozilla/5.0 (Windows NT 10.0; Win64; x64) AppleWebKit/537.36 (KHTML, like Gecko) draw.io/24.6.4 Chrome/124.0.6367.207 Electron/30.0.6 Safari/537.36" etag="Y3u-a_K_GdoN2eacwLr9" version="24.6.4" type="device">
  <diagram name="Seite-1" id="Sai-AEk5ZzGcB2MCiXBR">
    <mxGraphModel dx="2131" dy="1393" grid="0" gridSize="10" guides="1" tooltips="1" connect="1" arrows="1" fold="1" page="0" pageScale="1" pageWidth="827" pageHeight="1169" background="#ffffff" math="0" shadow="0">
      <root>
        <mxCell id="0" />
        <mxCell id="1" parent="0" />
        <mxCell id="YrKTldFXBiDf7sf4YSAn-12" value="" style="rounded=0;whiteSpace=wrap;html=1;fillColor=none;strokeWidth=4;strokeColor=#04426B;" vertex="1" parent="1">
          <mxGeometry x="-196" y="10" width="1175" height="747" as="geometry" />
        </mxCell>
        <mxCell id="YrKTldFXBiDf7sf4YSAn-1" value="" style="rounded=1;whiteSpace=wrap;html=1;fillColor=#04426B;" vertex="1" parent="1">
          <mxGeometry x="390" y="360" width="410" height="387" as="geometry" />
        </mxCell>
        <mxCell id="YrKTldFXBiDf7sf4YSAn-2" value="Model: nomic-embed-text" style="rounded=1;whiteSpace=wrap;html=1;fontSize=22;fillColor=#660000;" vertex="1" parent="1">
          <mxGeometry x="420" y="440" width="350" height="120" as="geometry" />
        </mxCell>
        <mxCell id="YrKTldFXBiDf7sf4YSAn-3" value="Model: gemma2" style="rounded=1;whiteSpace=wrap;html=1;fontSize=22;fillColor=#005700;" vertex="1" parent="1">
          <mxGeometry x="420" y="619" width="350" height="120" as="geometry" />
        </mxCell>
        <mxCell id="YrKTldFXBiDf7sf4YSAn-4" value="Qdrant Vector Database" style="rounded=1;whiteSpace=wrap;html=1;fontSize=22;fillColor=#04426B;" vertex="1" parent="1">
          <mxGeometry x="390" y="170" width="410" height="160" as="geometry" />
        </mxCell>
        <mxCell id="YrKTldFXBiDf7sf4YSAn-6" value="Ollama" style="text;html=1;align=center;verticalAlign=middle;whiteSpace=wrap;rounded=0;fontSize=22;" vertex="1" parent="1">
          <mxGeometry x="565" y="390" width="60" height="30" as="geometry" />
        </mxCell>
        <mxCell id="YrKTldFXBiDf7sf4YSAn-10" value="" style="shape=image;verticalLabelPosition=bottom;labelBackgroundColor=default;verticalAlign=top;aspect=fixed;imageAspect=0;image=data:image/png,iVBORw0KGgoAAAANSUhEUgAAAQsAAAC9CAMAAACTb6i8AAAAwFBMVEX///8AbbgAarcAVa4AZrUAYLMAbLgAaLYAYrQAWrAAY7T5+fwAZ7YAXrIAXLHL0+cve77l6fPBy+NhicMAU618o9D3/P2su9vc5fEAV69QicSBnsylttg/g8FTjsazzOTu8Pdxksfv9/qtwd6dvd0ATatDeby2x+FrmsvT2uvK0ufZ4/Bjj8VlmMvl7/fj5/GQr9UpdbsARKiMp9HK3OxAdrurxuEASquKp9G5xN+Rttpdi8RAeLymxOGYsNVXg8E6m6O/AAAM2UlEQVR4nO2d60LiuhqGadqmB2gFBOQgUkAQRUHWyAyzmIX3f1e7SZo2aQOo0xPuPH/UmKbJ2+TLOalUJBKJRCKRSCQSiUQikUgk55kM+wzDx6LjUyQTFzC4T0XHp0g6jsKgXxUdnyKRWkRILSKkFhETqUWI1CJCahEhtYiQtjNCahHRaZkMrf/rNnhl2WVYVouOjiQPOogJAv8WOHSow8T3Mol7+a4sZi2GeaWy+od12PhScA7/fGN70QZMJQH3vhY66zD0tWAdFPMb1yNtg0kouPa1ME9q8Z3rVF6LeL4Aw0+3L7zLFSt1Ldqz11wingFpa/FmKfaljg+nrQWyNsC+TDE+YDs/o8Uzrpagdp9T9FMl3Xqk4QbP2dO8EpAi6eaLd9pagcZtXilIj1TzRRXC8Ent8mzGaS3A5/LFk8k/emEsLF13CLpuvftatHwH7OT/cOt+PTLT9dCPMzvVH3mtMarZl9fOCLueXD+VdeC9nAprC9ks1PrGXdqzLC1WCgXOi45Qunzq03Z1XguQVazS4aXO8sMv4hvW4dm3F5zDnW87OQfFt52cwyZqSbzZnBaK3Swwpee5M2CENvDrEY1xMJDt1BkHXI+4jAN0fNtpsw72TRh4XAu4LTCl57ljh26MwdfaWhrroEVaHLh/+E/XC0zpeb6iRaKtdUyLZzYszHi8eEEsxoe3AlMt5owWH+un8lpE9uIpVkb8NxjB0iZDs/rzmxMRK4AP5Iuva/HGZqkEAJr2ssCkJ8hUi+VJLXygu28UmPgYmZaRWFtLhAHLM+/2AS3O982OadFRuDa4CPSGspBpPVL5GatUE0ClW1za42SrxdM5gwHK1EXhtABxLWDcdornzY5qUTFOFxKolcdaVCpD1YpQx5XKosU49PzP1p2xDmg+9RfjYKHxC/YRq8UO5t2cLiTarrCEC/AaLJ7AobPmXPxneAf/y3J/o2dC+DyUyBZKmbJFtky24GQZmXlFx9Cnmj2T23fVhKekgO5D0Tr4HGZqxvR0XTvTtjA2pWiAc0OyxQDtTTlsRdFaQMXWylA+EH1wPr4ZqQAVTTMNpzwziq1idNAdc7uBo5+/i04/S68QKZSrxxJOIxaihTEuOtlC1CK0sEqYKXzcAqQwSjRQwfJvYnw6c6DiFZ1qMQW0L8B70Yk+wv254ab00YtO8zEOueeL8i5Euc09X2il6IeJmOTd8EST1mVlk68UoF+OPqmQdr6Vqvmj6ASfYJBrR7VUA/8JnnJteVqTotN7kmGOGcMpbR1CuM5Pi9qi6MSe4erkvEWawJKMa55geHYGPCX0sgxsHievQnIJeyUmJ6dxUkO7iDXguYzzGeVe0Enp5mA9y9s7jZG9FtDyik7kB5lmLgZcFZ3GD3OXbQcNqOVuenO8ZdopqV2KrSAkl2unh9YvOnWfo2pn1sbQXi5tP5WXVSOjV/6Gd4L2ufWXXwLOLqcCYWgndjX8PWB4aeWD0OmnPT0AzeeiE/VVOv1054005QL3rYfMU6xZYa9UC3k/zzCtYgJr9mVaCoZ9KmJADV7uKUERD72/HuUC+qbE84Sfwdv/Xd0K3OtvdEbhbevMVo/jwJp1XaLdQWmwU86t4BYKATSlzLOlX2VgaJ+zG8Bwhu/fwWAKaAxeeh/OHIbZexmX++CCv8S7112/K39CEDSZUNN79mDpFR3ZHHicO0Czga8IpLMo5DgH1JrSAHC3hwsavvt71tPn7RYd7aFjyDEf2+1g+k3Nw4d4xBQdC4lEIpFIJBKJRPItSG1csnrpI5wrOLv2UgnpYLUue2LIc6AC7DRCGrmK4lz0NMAULTIw0xi1nkNFAXcpBFQYD2geREth+reKtqwZF63FFGuRwlmRVbSk57LzhdQiQmoRIbWIeEhVi8u2nVKLCKlFhNQiIl0tLs52et5q5Xke+UNYj1Q9rxt5ORIIDiXqmR7Twlslg0HPrpLB+16roQ82khmxfJ2rrmnqrjq/QtuHk1pMuq+2apmm2VMHXXFkGm/vrZ5jmo6qjOke5Koq1GI009WffAxGWxQDU7X3b1zwq1+m9YLE8N7mrZ7vw+257ey2OD++WjW6egDa6sFLarH844RegG6K1rRPXTO8gQm4z+QeGqEWj39Q189lEvS4tcIFHcBURsyQB1rXYN5WqreGGa5wMKyBl1rqOf6z+DW92uYxZi/W17FtEyaIx6W759fPgxa+qkxURpo1rJlxTR2qO5cLHpr18BaBJtripf23rPMxyGZrb2eTXJtn4z1mkRazxJok2OLvPBi7CS+a2xXVIx4Ivq95CFy6vxJLiqHbplpgibXEFhaYhRR1mghgGAaXIKpFePIDAOjOg+APi91eOzAFgaDzLOJaeAOaBWr9YKFKl55EA9ng6YdvctkNxwAFkMVpyNUh+SZA2yzG4/GLyixZDLRobIgTsO58L4sFXfDqRjmDbkkzrDs/kIUdlP1eI65FF2r0w9Nj96rBAfpQr6Pg73pBJnFGCS0M9QV5qes1vxinr8U92XGp3QXGaL1TwgwbaLEhaTf3Qdq7iyDlrhcEsiaBwF6brMbxDnWcZDWuxa1DM8WGlnevjY0VNJXAZbkLlNSbvBaGvQus7XS3y2DZz2+cLOiMvdCp8UztB9GirREvzCDX0wbrZdAyTc481epMBH/oANp73nZOqXmF5kv4PpKloMLs7e+SnAe3qDahWkCjn/FC2Rf0Vljjq+uFzWqhkrjyq9BIyXJJ4g/Yf42/4nIyV5BBibSoLhySwaBmRBdoNGakxPDRIkut8Yb/UItDJVse8FUQdvw1eyPSYoB/1+M7w7BdDy4iw/YEiDdXhlq8aUHZA4A1e/jaJqjEbxchV4gqlVALrV3JGLzzNHmqVZes28Ra4KgkT6dY4axtoTQ84o/oiI0Z0eKlurMCS2HXOY84mFoioR4OU29EWnhfTuQHwRlUT96ORHI90qKBv6aTvBXmD67ZkL27NqIskqBKtnMaQaaAsUuVJ6gSgZvkfsQdesA4UC1qmc+w4BsNRCdmrnC2R1qQxvjPhI/KA74UGO2fw5bTPFLHVbmtrbAe21DURMGD/WS1mvj4XTP8c7KaPJDMRrVINHNT5zfSQhsJ/vNOtcC3NoruoWvgyLaqwXUcrSOviGmxiWUwcrAb0BOQyksLtICpTOGdBF8HI7xwb061wL/oou1hVAJciqBx5BW8Fn7V7HH/3p3c0AcVqkX2J5z+h7UQHcONaw80b3Zci36gxRoVeXDscKxQC4P0KAC/K/WDWuRwJfWZfKHTXxzRwzRfrFFVAI7ZNqqF/twlTXmNU213ctcr1PPTYnrUXoTZgdgLkWHE+WJWCUSZHXkF0cJATe4JuWTEZGUj+QICIQaqpvLSAtcjQLSXuo6ijRqD+NpG0cBnE2cHVI6xKG7SBwZrAcl5H1PSj2HFIDXZ5lrIO2oO56XFFY6cYGkBOSMHfesrXM8LGn0LpICGWqz4PnHjSB+aG8uZki6pE43DdPRIKjF5aUE+v+BFWyW0h9jkOYmLo8kFQw5qJO1w/dcTv4Ef1wp6xb1Q/eosJk6C3LS4xY2EXrzhSbIFaVWTZnrUrwzAPW1ynqCHNxUduZguNn7xSuoNK+wMEuO5OR7F3LSokh5pi28Dk6wc2JEG/sOOlZKfuFNnkm7KHHekdL7P4i3xcHZ8XGtPRivCC+k90qyMjdit39b019y0qBxwVCBkO+1LYuLUwO0Fx16be4yXMS4WoE5akUG9abFiNOqOaTWTWlTJkCIY0uBIxgB/1szDry07PAghPy2CgQjohrvkHq9Jx9Cm1r5ZJ40k44F2Zx+Cg0FsWuyn5BZIZxE2VaY6JEUoMQ7eIc2MGu3iezoJfhP2ea52eMYgaK3nqEUj2FZZ673e+kz7wYCLcedRLzckpdDcTJGXm2edeNGiynhHyhowAfJxe2+Tv9W1YE7AU4kYtFm9DMb9bPUeP9x28eehi8Vy1KJyoHtMaxoiGNcFGtOJCqy/X8pZLzbbLqFnYwReSJA4XyTniprB+2jv/YEON5Nng1a5nn++8F8mOKGzNuT6kzdW0ovJXR9TXSQb0xAN3ormzYKjH11qX5aCLeG2RqOXpxZ+7zs2WQT0fWyka7qJ9aGAHT98dBfXS6ujRgle0xifQyRFKrpeY9mPT1e5rzQG+WqBbB9z4gkw+8nzZr1n1osRG6jDNBUnUgMarTbp3O6BoO2BraMdNVUb/6pMvgK2G/Wdu06+WlTWt6ZuY0xdoASiee+a1MtOvDDjSrEDL7rdpvXSqmfbVsL/q2vbgM18y1c9jMEzN4owcPwA1pUc6TRHmKvj81HdJ+LlyTvqZU28XLHDAI+jkSBM/3WxYCZBDJ7i6wkeRqMSXcItkUgkEolEIpFIJBKJRJI2/wNQDBZd3n7ppwAAAABJRU5ErkJggg==;shadow=0;" vertex="1" parent="1">
          <mxGeometry x="846" y="33" width="121.37" height="85.91" as="geometry" />
        </mxCell>
        <mxCell id="YrKTldFXBiDf7sf4YSAn-18" style="edgeStyle=orthogonalEdgeStyle;rounded=0;orthogonalLoop=1;jettySize=auto;html=1;fontSize=12;strokeWidth=3;strokeColor=#6F0000;fillColor=#a20025;" edge="1" parent="1" source="YrKTldFXBiDf7sf4YSAn-13" target="YrKTldFXBiDf7sf4YSAn-17">
          <mxGeometry relative="1" as="geometry">
            <Array as="points">
              <mxPoint x="82" y="451" />
            </Array>
          </mxGeometry>
        </mxCell>
        <mxCell id="YrKTldFXBiDf7sf4YSAn-19" style="edgeStyle=orthogonalEdgeStyle;rounded=0;orthogonalLoop=1;jettySize=auto;html=1;fillColor=#a20025;strokeColor=#6F0000;strokeWidth=3;" edge="1" parent="1" source="YrKTldFXBiDf7sf4YSAn-13" target="YrKTldFXBiDf7sf4YSAn-2">
          <mxGeometry relative="1" as="geometry">
            <Array as="points">
              <mxPoint x="205" y="451" />
              <mxPoint x="205" y="500" />
            </Array>
          </mxGeometry>
        </mxCell>
        <mxCell id="YrKTldFXBiDf7sf4YSAn-20" style="edgeStyle=orthogonalEdgeStyle;rounded=0;orthogonalLoop=1;jettySize=auto;html=1;strokeWidth=3;fillColor=#a20025;strokeColor=#6F0000;" edge="1" parent="1" source="YrKTldFXBiDf7sf4YSAn-13" target="YrKTldFXBiDf7sf4YSAn-4">
          <mxGeometry relative="1" as="geometry">
            <Array as="points">
              <mxPoint x="205" y="451" />
              <mxPoint x="205" y="250" />
            </Array>
          </mxGeometry>
        </mxCell>
        <mxCell id="YrKTldFXBiDf7sf4YSAn-27" style="edgeStyle=orthogonalEdgeStyle;rounded=0;orthogonalLoop=1;jettySize=auto;html=1;fillColor=#008a00;strokeColor=#005700;strokeWidth=3;" edge="1" parent="1" source="YrKTldFXBiDf7sf4YSAn-13" target="YrKTldFXBiDf7sf4YSAn-2">
          <mxGeometry relative="1" as="geometry">
            <Array as="points">
              <mxPoint x="595" y="597" />
            </Array>
          </mxGeometry>
        </mxCell>
        <mxCell id="YrKTldFXBiDf7sf4YSAn-28" style="edgeStyle=orthogonalEdgeStyle;rounded=0;orthogonalLoop=1;jettySize=auto;html=1;entryX=0.5;entryY=1;entryDx=0;entryDy=0;strokeWidth=3;fillColor=#008a00;strokeColor=#005700;" edge="1" parent="1" source="YrKTldFXBiDf7sf4YSAn-13" target="YrKTldFXBiDf7sf4YSAn-4">
          <mxGeometry relative="1" as="geometry">
            <Array as="points">
              <mxPoint x="217" y="597" />
              <mxPoint x="217" y="356" />
              <mxPoint x="595" y="356" />
            </Array>
          </mxGeometry>
        </mxCell>
        <mxCell id="YrKTldFXBiDf7sf4YSAn-29" style="edgeStyle=orthogonalEdgeStyle;rounded=0;orthogonalLoop=1;jettySize=auto;html=1;strokeWidth=3;fillColor=#008a00;strokeColor=#005700;" edge="1" parent="1" source="YrKTldFXBiDf7sf4YSAn-13" target="YrKTldFXBiDf7sf4YSAn-3">
          <mxGeometry relative="1" as="geometry">
            <Array as="points">
              <mxPoint x="218" y="598" />
              <mxPoint x="218" y="679" />
            </Array>
          </mxGeometry>
        </mxCell>
        <mxCell id="YrKTldFXBiDf7sf4YSAn-13" value="Gruda.RagBot" style="rounded=1;whiteSpace=wrap;html=1;fillColor=#04426B;fontSize=22;" vertex="1" parent="1">
          <mxGeometry x="-182" y="181" width="197" height="539" as="geometry" />
        </mxCell>
        <mxCell id="YrKTldFXBiDf7sf4YSAn-15" value="" style="shape=image;verticalLabelPosition=bottom;labelBackgroundColor=default;verticalAlign=top;aspect=fixed;imageAspect=0;image=data:image/webp,UklGRjxoAABXRUJQVlA4WAoAAAAYAAAA0gEAeAEAQUxQSI4RAAAB8Mb/nyqn/f+9XjNnNU4CxTVGgnvfEBISaKAG1HApEVKsaKiXuisONSzU3ZDK7VZashFIcG82iiRIWUg2SW9zobY75+yZmfeliJgAUJeILbJdZe7KmivsP1+qdG+YP783AaVKLPYBqaPGLrzA/LrYqlQw6f0Pa5n/9yRZFApJKGJcNu/JCEdFQoJv2c94vf5CtKY+SMvBo+7aXM34rf9ldq/4IJWBaO22supsbRPj+lKFewFRF+HD0x893sj06LIoCqQtNjLdXkgjSoJ2nPNWg37YtlRUDyRs4RGm7w8daoF0iI1/4etrTOfVr0WoBLR/6XY3MP03TCYKIXSphxnjvrsHUiVAboiJm3iOGWZpFCqA2Oyvytznmo3DO51IPwxewYz2fk36BT3pMZxcq/Qb5GGG+1KE5MOIhcx4T6SizMOQkS//YUANm7oTeYeJz5z1MCOuz09ESUf63PweM+wsSUfSLjADzyFSDtu9w4x8Q6SEI5Y7D3oNreF5Ituw8/K8WmbwX4RINrR+4WGG7xki10iPB6+yAJiFMo0MPc0CokuTaCSxiAXGMwnyDGP2skCZgbKMrthVHzBmEzmGtP/vLHDOp1IM7QOLWQBdFynDtLg1+Q2BpCaNSLD2bzeygNq80Sq/IhZcYgH251ayi4SsOcsCbpLcovYxj1SxwJsstUj7j2tZIL5ZZpHeO1hgnkMklvPtpgC1i0orbJ97iQXoAquswvAVLGDvC5FU2OHJ8sBVOQAlFBJq+5gF8mwioSxPbt1eG9AWUAnlKGQBfolFPuE4T6DLtcomJJHPsUD/cz/ZFJf9XGXAa1onmZwrmBnM0wciyoqYMtNGE2dNaKkRGWGZUmsKtnOHjhZJGSXMe8C1vFeQRhARJQJNq2OmsJYv2r5X+spdV9jfV3+Rt2XTpk3pkSgL7BP2MpPIEwnq93352Qb2n89NpZKAJBxipisy8+cy5tuS6anJcSh+bWYd8potreMm5tcv48MJip1jGTORnGCbBR97/eNxr80ZR0ROm3DGdIV+xng81sNJEQUNB19gZit0wRUu2KFPt77ZP0jECI3axswWDj3JuG2qnEcFDBzZXtMV8k4jP4wVOQWMJG5nJotEzaphPF9a1Ld7JBEqrfOo9+tNFqatr2N8X6lwrx+FItVqfY2XmSy6helxR6RAYd8KZjr9F39aF+ztSBQlvGHdddNFlzF9NuTYBElLfPk6M122Ap2wI1NCUYTIijPMjPqLpNfqhZ3dmGAVHy3lNDNhYWuYfr2ueCI6JLGYmbGYMh0x76F7k4eFiwwOLWKmLNatp78dTwSGbmHmLE5/O+3igp1conasMwqL9WNm0rrrj82lomKbUGfW+lbo79lwUUk4xMxav0r9nZpmF5PQDY0CxyozegaJBlJ77LzzzLQNMAJ28fAkKhgJcx48eJGZt0FVRsDYziixILOZ2fXX/6qNgd2FQkHnm7wko1gViSJhW2buMLnGIK6/0FogMKbQ5A2rNghWO80qDBjz5jVzB4OqjOLPgr5oLpBSQgjqgXT/7Tozef0qjYKxPWkOwyOISGKTklNSR940Kj199Jj09DG333nrmJtv++v4O+++Z8LESVMmjB935913ztiRv3fvJ7eNTk8fmZY2Mq0tP5hUzEywv/pUGAerTqJGhoi0ZfzSTZtPMX0+PyDSZrNbCCKifzDsS2b++hpJ8+47iUEhpTQlI2POu24P0+3lyg2PPPTYspysrIzbKNWo7yyLPAIwoNJAGCt0oIEgEq39sKSkpOEpM/Pz888z47yan/9RN5tGCfqC3nWVyYaLGwY6DALDYpZu2pxXwAy75MO8bVvSOln/E0bvZiLQz1hYU+VAA0DNFj56ZZmHGX9N6aQQjfw75+LLQtCnwlgYG6EzpPawia6C/ZdYgLy0z/ViC4r/RG6/zISg9Tajme3QByKhFnu75LtXf/LdZRZYz+/YcNuQnk7q6BaTmPY9EwPbA0ZzeCDRA7kta/b8ZSs219Q2sQDcfL7q8MNzHj3oLq9pFARtodGw18L50vomJafe9vRVJln9ReYYjuep9gQ5QdQiZ9QyKesvajzs6q9TItFfSDTNYk+btfCNCiajSLbxMNbwdjj6jmqaxTL0O5eroLCOSdud/sIJXgNingHEZ8GT8/Ly8s4wybvNXxBVakRfBIMvkWpW692/Mxm81W8WlxF96vABxqd95HIVXGBSeIvfaL4RVQ3+D4hE6/QZk8ib/UbWGBHL1P4FAsZnzZ6b75FJm/wGqYZU0If+HbF0SLmnmMlmDlIMif10Y9euXbtGxz23vYDJ56Y3/ZdsTE2VZX91NzAZXTXEf/0Pe41Ibru6+I/2r1Ati23+g/Y/qZY5lAPbg6olGzkg9ykW7xQeMEuxHGoNPHQ+plYK7TyAxaVWCqxckDVqZYuFCxhwUalMQD4cHyuVdOCTblUqyZzgLedUyjBOIM6tUK4NVFA7I3jptFedNK628mK5X51UDUVe6Dx1Up4IvJL71Ik7jp+pXmVysDM32OqAMnnCwQ1Y3y31KpIcwg/SxHJFkoX8ALT7TpFkckUnXFMinnFcQfgvSqTADlxrc5SIS+ML0pRIPuFsoEdBBX+poCzPV6iP2ruRMwy+tUZ1XJlrBe5vOKg6aoYD/45C1VHZXwdkh+pwx+oAp6iOsmgdQKrq2NtBD+3zFcdcqgctT23UpaMe8OZzSuNbO+gy+qDSyER92B9SGTUpoE+SozK+j9AJTvQqjM8cOoGoUoXxoVUv1gJ1cXEm0Qm2KlUX38WCTslUr7p4JVgvIc8wdfmQTSe2Rz0KYx7VB+1/hCnM2UQX2qTTTGEe7wJ6dI7aw1RmgU0POLSmWWls0PRg/5wpzbqBqAPHhDql0fyeDbjHtrk/MqV5YTxyh46PmeIs7QHc22deVB1POfmLOchU5yKNO3vGRdVxfSLhC9sl3lvFVOfaFsiXZWV5HVOekxH4jtrFFGg6cJ7KFGhJZ860x1TIJ3a+aGSJAvG+qnGFCe9eViAVfZArknOZKVB3HPBMRruYCn0qiCfSqpSp0LK+yBG2ftWrRAqswLH2spcp0WzCEUn5nanRJODYsoMp0mEc4dirasT7XgRHQY8xJdq0vjVy1PeoGikbSIFfy4w6NbIvBPjFtAqmRgus/GDQLqZIXRo/dJJHlcxEfsJeY4rUMxj4TTymSDxPB/GjzbqoSNxxyA22/omp0aOZYcArxr9cr0jmOoDb9nuYIi3oBNzi4CpF8sdyK0dvNimS6iTgl2xlirQomh8S950iqR5j48f29TVFUhoJ3OLtV5kiLXJylMFU6U4bR9nK5E7KD52rSA7cEQn8ttmpRrwZGnAcXaZGPmkFHOOYc2pkDPKk5TEV2ryrPfDcvlCJ1KQQrpKZEv2tE/CMd6mRbMoV+U6NZBLkiearkLpP2wHXFpcC+fQWJ+HLVqBAcihwbi9UH4fbAe9hJaqjuWYB4a7VQdVRfWsw8I69ytTG1UMLgoB7ks2U5p9fdiKogxy1UTed6oHOVxtvtwYExeS+kYIe6VylUegEfcxXGOez+1PVdOH1KNApGXdFWeREol6g/RFFcfZAP9BvtxNq4tjtrTT9kBHnlMS5WXbQc4sSFVGXEQq6thUoCO9rbUHfWr6CeKcl0Rn5QjU0HC0cgKBznKQY6tfE2AjofrRaaNjShSDof7ha2NQVwQg67lMJ7v9RMETbR+rg6qdP2sEY6TZF0HhyxQgnRYMgW9RAY/FQBxgn2awGDvdygIHic14F4C6+m4ChRs78XTZdLbvKV9XKef2CNTBWtLok069Loh/38PRLZkuKYLg0Xy4d6UjAOWjmBV7OZ7amYMSYK5d2WAAAaNqc/IqqRr/8WVddXvb8tDAw6BS5NJ78BYjWpdeNb5T5rub7TZOTEroGETDqPqVeeVQ8Lhz+rZaYNDLrp9LDx+v/Vf3x0qIXksNtCIZOokulkXcKgf9MnC3adJly/5IHli/eW1aWv/T+qV1bODUwfuv4j89KovejwMdEs1itlvZdu7a3agQhMKJz4WUpdDEJfRWgB5+QQc1v2cBUhjwrg6qHo7kgMT9IoKeDwWRi/N4/pU8Wmg7t9gPSJ8N0AAQvuS536orHmhCMWitzmj67LZiCCcXUSolzqq8G5tQ6o07eFFjArMa5GqXNMjQt1h6HpU0ymFUEMrFWzvxe0AfNCgBYVjdJmPq9iVaLmcHE7+VLw/Z4BHNLOhyWLoeGIJhdeueOJsnysB3MLxlUKVdq04kJAsegke9USRPvoU0OMMcYNKqkXpIc6q6hSQKwDd5UL0cesIGJxj7f/S5BLn/eHkw1sfVfd7pRcuyYFErMFQBtmfyV3Lg8zQEmnKTLjeJQNGPQevmBc9Kiaed4AqYc7dFjTsuKqmEUTDuJGzpy4TEJcXy+E8y9PbPMXScb0imY/bBusZM/+OqHP+SB56sEEEG0BkfOPC8N3N1RCP5KRsyen7vi3Zpm0fPsnRYG4oiEWu2Rt1YLnueJThSEMzhldProMZO/z893uQoKi4uL9+0vKSkpKS0tLSnZv/+IV3AuLxoaBMKKhFDNYrUFBQWFhIWHh4e3iGwRER4W2mGt2FTOdYCAk9lCU5cZCiKOWSJTt9kKYpZ4RljOvH67HcUMLC5hWRZFQdStBaLyczsQd1HxHhyPAmcvFJMDcXYQeGeRiLgLxiMIPKbVise1/H42AkKXxYTz+AvRBMSe5IhHbjCC4NM5gnGl4rkeCKJPcgTjld7BCOI3Wyhqs9ohSEBtkUjUTaEgBR1PisRXbUEOOp8Th7qisVQStFonBlf2LL9vlJMSOYDTq4SgKLenjSDIQrKFCeCp3B52BIloeV8Ajo4NBrkY8qUAzLCDZBx+yfR534kAyUizmel3x6NssO02f7vbgGQkd101f086ZEPrr5n5f9wuG2LdArAtUjb0KBeAsm6SAR+4JgBVQ1AybGIC2LSKyAUtTwRYnk0uhH4tBNutUoFMPSoE26hUoPlMCLeQ/3ezFQqBJ1cuhO0XAnc8SMVuJ4SgLEYq0HsbxaCbVAh5hYlBV6kQUyYG2yKlQmK5GDxmlwnkRa8YLNRkgmU7E8MMlAnW9xVU71ox8IwFmTiMCWF9rk0qJIvBr+1QPX3qBKmYIgZ5mlwYIQZbqVxIFoKG51AupAiBOxbkYpoI1K5sLRlSRcBlQ8mQbP5qvx6LoJoe6qiBYrpcfBtBxdS0KZSAfDR7VTciSMhBdSau6XTx151BRtrv+NG0efMGBdmJlICgp0zb4S4ayEpyzzWzVmgHeRlRoq869+MZmXN/+uMvzTUVFeVV9QGgsbq8bFXmWCoxbAX6eiTeiUh7PPjZB59tX5nSt3fPwS8fNr5PUhJiwhBBYpKpF3V06ZO2FAAAHQ6Lw4IIAOBcZmQVh0sKXatbEZCe9g/1c3mBA8lf/j32PGNUDZuWD2kTYdcISFBcdFgvf+RFg09tBQbk+Wb71s3PRlkJSFN77xM6eTyKBIynIiwUEaQqXV77pw6u/NQdfIsjLhjPmQQE+Ro+p04HqxOoj0gOM958DWRsm7XcXfk6hoCPLQuMiEoZMrWBt68jEXyK4bEpPxhQaaSUwRZvc+ZZbgWfYsRz7upmA2qYiDIGMGJ1kYebplNFX3YEn2L/dxuYMT/plDIAWtCEN043cnF2RT+nFX1CW5Ywo64cQuUMAGk54jgXxeEUfEtvWt9gWE07O8kaAG0WFzMJ+BYHXGBGnipvoHXugXP+8bhXZ7UB35L2eczQ1xJ5g/bo9E89fvgtt3s4gm9p5/VeYytyyhsAQOfgD1xFB840/idPUYFrLAHfIrbJPNLIjP3anShzAJBozpYJMxY+8NjGiqrKmubKR5cunJMx1mnTCPgUW6Zv+pUZ/wsdUOr8PdGs9qg+AwemrlzhsGgUwfd05jkWCC991VYC/TMigp/brGEBMsMmj/yMqLVffT1Q1N5EpBjtmH3/e9dZwJynyTA6/ggLqHs7iQVWUDggqFUAABASAZ0BKtMBeQE+HQyFQYJHD6uAYDielu4XSOAP5AsgBMV5T/Ob1+yvfX9r+6+kDx72C+0/wf6u/dr4WdEXVflcebfsv+6/u37y/4j5p/67/t/3f3d/0//H/+X3A/1R/4f+A/cP+8+0B7vP3d9Rv9d/zv/a/yHu8/9X9t/et/YfUU/qn+p/+vYxehZ+7nq3/+b90/hm/rH/F/bn2if/B7AH//9tfo9+y39k/Dn9afmZ4w/aPxj/rn/r9e/xn55+ofjT/af+7/jukju8/Jn3V/jH2A+wf23/C/4P+4f+//W+1F+U/oj88f5L8pvgF/DP5B/S/7V+wf9w/7P+t5eC43+8/Lv4BfXH6N/hv8P+0P+F/a73J/7n8ovgH7Q/8j3Af5V/RP8B/ff23/xH/5+pP+14hPqvsA/zv+8/87+7/6n9tvpN/o/+X/l/9R/4/9B////r8cfzn/Gf8v/K/6L/vf5////+n9Bv5P/UP8//f/8//v/8N//f979+Psi/ef//+7r+6n/3KG6yAa5zbzm3nNvOY9wHlqv3rTN/XngrePI7/IekF9mKf/vpKrrsjoDe7HW1RfJmVEMS0gwrn6IcO3WQDXNn1sh3OFad4bgc0FUj7+YnvceRfeIQgEwGwmFBGvDk1Yktnn6IcO3WQDXObebPttt7RakvhZQcGxvuG4nlrJTKD1hvPGcLKws+asXx/vffVUni90LP+pJ/8nMpJcjmSZklUGHwVXoKgGuc285t3o2ub5eagUaoh0/bFMqGu0l1tRXjvJKxoRX5M+4ZCF68rv1lhTMwBFQcSPJTMHs8yUTM4sslCYmc1NvObecxgWdmhnaAAB+xh15b+9q48pYhBTGqSKEUsA4HygdIulB/NphU7QudrK+hwDg3Ir1tdb1KcS94VNrSWVF0NSjS1s2YDExTAaHO2GerHjHXoJYB8Dm2K+FvcHayZVUH8sT9VyOX+7a+uOUeh9Wdc7Zh/UMdZEmQEz384Kx7+28Z0WmTPAiNo4Yk9FbhOIBJaVB58C48eCFavzZn5FJOEWDmyo0m+Xj4bC71X9GF7j8SBKc2mAXwa11qrLGzHF7aP2GByJa4gSK1dssIfN83OVGZvPQ0KHoY2EStcOOfLCF1Ps5Wzx2Qm80TqNilerWGJUAen9XObpTuVQjGY5lL79UJH0ydncmPfVT2fzcq/2mSJdLzxd15N8pjkGkGBdE4vMh7jtMDkclI0+zOVGPqkHXOPEvC+o2gUqPz+KW+aopq0nkzFD+YeeQDnzrhe09ax4FHUnNdNeLs1gJpbQ4dtYVr40NQheOOXzUYkLpRgnTzMJV206FtxcsYZX+w0dtc9Tcu750lXdOLwhQlQF6RmZQZs0ytvhUM2WNsQGkGFc/QsqR5apPWotC7f/tNbGi3wK7ikFHw2phbiDerJKIshPmbXDsoRN1SniTbtq2sA0WRvBQ0+IWttIkO3WQDXN5phd757T2aV2oIJkJRmqGsKlPc3Y3ObAf/OZ+U0qyg/tU8nwclFZlH3O2w+cdmtNeDN1kA1zm2VHg/ltQTrsjewGKs8FGfKnzaOh+vu9XgZsVD/tVrzbqK/TbFbxbiqmpZAB0LF5MaQiFGdyRcea/cxPWk62mWcjVCvfgHVpBrnNvOYgN4ioJscD/+Z/pN6rINq7LNqwT7JuYL/sldVO3YOi68oPTE6XN0/an2mHyhSctYTf1H1QK4IXfohw7dQMO8BAgPbCyfUtO2XabDEYGWplIYTN71Jf8W2hpZSQx2kqVe2RmUi/tKFRm3OMFh+v81WKlND6oqh7x/gHc7SDCudhMiO+MSj0HrPhHjcYS1C1/VgzD0y6UYtHn4I8efk/6qkmz5o4PoZfmea4YhzxkiWGvTdLJSSprZWRwpkySTJdTIGDxX2v7ipPJ0hyz7raQPjfMqlarRLKDUYya/RB1yKdS+GuUtPMGxIMLn4HYP3cfokdvQl+/kSFyULiYfsPku9I7ZUjhsIJx9F8Vb/SOZdgbiIQ5doq+fzzpUdGvlKUoRWgYIkrSO8qpB46W8jv/CA80QTeZ370uPjhiXFSNqygeDi9ivMuq/KgmcK44dm+nycl2v0VEDst0Lq09ufDgTq/Ef+zX//QMQNyT1RLPzoeM31b/aW1Ako/jQIEycgxeUFY8HzVpR0VHazf1Y8G30/x/BjE2eh24HUreiL9nRIK3XqiGNyIqKJjxXyL52LKcsqGy/4teq0xfYTxgvWVW7lW2+0qaOiWBLfqTXHqmNjtbW9CcLvgiJMwfT+U+Qm2NcD6mUsUp9S3j8Xo6IcVa/E2dJX18d6oE+9UUoDAl5YnmvfTRbkkh5l/elQZT5GzVpTpMOw5KNh9rfxdpZU0cLncv5MaoYmrEZdpicOvlHihhE18be++WVU2r5pjnex3TZph/yZt/CWH3v2f3G+DNFwwtuyYD5aKvfR1oES+E9br1aH85Dtpjb8crzPx/anc+Ih1Y/7i0PDZvlSm0TSXWJrb6ytf1aDpNk4Uva+QmgmFmvIXs6CU6q6adygGf712t63Xq0ZsmHZsMQCzx7LJZYULJKOmi1zuq/9djzY37CBXwYnUirztbdBAix+kDx1OnMtQN+GN1KvQhmc7VcdsEx84ptmI+cMVaU6TEO4bDws+wMyF2HKL6zyV63Pw2NW/FPrcEIMNAIj5kFilexqD/iLCIMyad2LeBOQoApvIROAY3/eDDrhlzrFB8QCb/+dfA/u803i/r6OYC3xsX0cwCAjvwnPRna3HB8A2aHvUW/LvrK0P7DBa2j+cwecFXjwN5hGFykAjIL6x+pnnh72QNhLagHs0oncHw013SHSN9yTYC8i8ha1HFzhirSnSYj5wZokAla1AlOr1mvixc33AjPCKjWMIzPfz18ixaX6eOUPIBkU/5dCjAvkR0Tk6qqlTvIPG4L1KLAUE/ZWpQAAP76RYAAsRcby7pyfT04dJfGqRSofN4fi9b635toYVKbFk5kAHp4HNzQivHZu4F0axB4L+tdwhe2tHJOjQ+HHDGnmP8Fiz37CfNfDaFn6O4NsHiTJ+alQj6zu6bmzxWC4qOKu6Z/5g7DkiWde+7EfuY7m4WUX/IcEtP4uvCyw+pk3+3JeoLRR17OdhE1EiuxCAGdmRUVGYiGKPO0yJ/VXvkqoZbPLybOjsKBxPr3YH7cWMfsHzfXMsDjLFbQQL2ua0PwxAvGzwrRoUxgN/5jBAKYsb7XglxPw8saqfSq8qtQ3+BXwrTASVcliRx76vzU49nzKjAICx0Nw8amCqAl8QSdCZhJYRVNmWsrIy41KU9+illh+OhUtzMYfp6R3/tvkJe+i3NOeMr5upN8duZBlIpimFBI+P1/yfp7MXkE1o9r9C/7V2fEkPTR7CyrtzBz0EFGsxmdTMHBX6dJ1q7PARtgvQx9+Hs/My+MRzNS/KnO8hcmX7vLttmKnX1cPPFAakkKXCPKfz2fF4Kr4kBN2D/V3qqEl3S0tPFEf3QXkF8cOslWMEm51AmhP2HWSSvKxthJWkd/Tf5V4F8hEXjAALvqj7hybMbT9fIY77P7Ubl3KLUWhAuswiHwOxmW61B2jmaRZtNXG5kBMCvfVcDH4xS143TaGaikFgbFV67Q7Re8lnvS/dIs08pV5BOpToeuiwTAGGOe5R4x7xXYob63LYyh8aJ8SEJPJZJPtq6z06hP90HAAFQ5yQLJvzgbjah5aoa0UgwnqHznSdEmTI3iIIw5xz75hDtrN02HcZ45UhjDtioxtNnN2eV7pvZ9ZeFvRnwcmM0EhvJdHqfhowFUcgYkZLp+5cxgEPwUdlw0z04TetGzgbE+t5NhnWop5LXKHp0TR/bUjTn/lVtqJercZbM1QdnUZt9jWgo4QVMZ3+exilS9tSfbGtNWIK75sSOOHjL22+ySGGI24MSEPdTr45NVMGiWpB4rWoEJWCrNFxOIusFoPmf1CrQNeaJUqSw92MzpmTltNs6zZsUdN4QOYYl1tRUKFkPrXWATMbEpHlnSzNXPXGMd/q6h2P1s8QljbY8/N00ORDW4G4zm0FXrJQ7Z4320Bsc6z75fYNKGyNQgkh2QsXiZ7Uy0qoOyN4TTgPby+JInFXLnpsNt5hENffdukrcRohVOmjf23CceKvFCf4Hfue34tOR8pzH2IJ9rTNoVtw0dGQoKvweDwV6cED/jGayGOxpqekAhYIz1EuGiePfDU4ERHu8Q8x7z2Ax4UXvsuwLv23IHv9drc0Qik8SKRZ//RSBUmSKKsebq4J4Dy2lwZvEfOjgJ76k/Qf+twl9oAiEFXcjAk+slNsqoifAQtSdIAPZXL0s2I7GU43SyshNZRRCGKqPqIB4zBKeL5tH7r9LyIdFD8ZMw99FrgWOM6r+C6eRJfm61YJmdkeWe6e7gtomAWz4c/FMhofakRZwOckz32q+Xk7+v5DAep8l1nNhWODpH4uf0IsPMf3XXtKOHr8iXcGWGLS7l7uHyPO+sd73Xhk7Y4hMSl3upZyh1DxLy80Ks1ukt4JsQiyQFrdc6xtTdp7uUZqF13rbfwLqpQOnNWnJfU3BVyuK3h3p10O9kW83xWBr62EO+b/ijSOgmUfsnRpY7qRQb5NOaS40OyrPVFqrqP3R/gFKtZqQt0UXg0QA3nSsEqixYvdmpx1Qjr3NbSUgzUBHDdpuTdJgG/pXbm7dc+DrJX8dsU/N1NJKlLllpNixkXu0hRqxq4CQ2zdi0ViWfwHYP4XJRHgHvSL3/KVce150/gIKn1LoMO1BIL1BX8KRVZ6q4uh3TUscLKZEe//9oRdQcqNf+Lvk4DI4827ESt7/GBiPjCVHFwijBw5rH+4or/I5qPLnA/Dm3wBc1FkgYFlnD9LGjjy5KsfA4AghD1uraQSslVCxYzVtVPJN4S14egydpSKU6dAQFsMbNJOzWj6PBTRFjFcSeepzTbBSmu4ChsSwEc5+74KNjePfGVjyT3vs+9+X8dz6GV4/BqOGWevvaXyJBMJhOubdJ6hUrdeEKQVTmsLCMKrVI4T9XsDbAPdXDKGYdrp8w+AH9Cm6NexkaBNsiXzVbP0724pGkP12195E30Tu7p0sR00A5ENp8UHA0Br3t2x/bVW0FfniCFd83eUZVaysJN3DUSsmI91+RbGCwaXykQInjC/sJUlAARDP6fA32HcG5bkFEezQpSP7t/xRFEvwnMrQBniRnUZQEJ97u2b6F0WrHVPnqqV6/5GL5XsIdqP+xSpaFclQSvehvcAB10RC0pRHVO7U0esA7c/AG3krKJiyx7hOcEZLpf6dGk/tquxYrS72aw5iS/SVvW1k6oHexuyJ1t/sFzYGvH5pOE9tXuWRZBFO1nCIH+Jb+JFFWxJTmOvtg/W+1lzXcsKSNO5AMOPzG9nLxFEUD8QPYB8xeH65D+HT/URZuboRXPLA1Nf5cRLRMIGse96Q7S3Kh77uzpAyzSjEPDFyBJLtO+s5b4KiUs4NdXmHyHQZo23obHjxiVQfSx5XpX/C/HRLFAGd61K+9gdrpr2TmK0y5QoYbi7yFA0CxGS/dtM0fXUfaKvS+chpA0nomXDk9sEgX35lRCSdwdtFN52EENNr5/GSLgrE2lItlEKZkmWdSTBW3LzFrVhWmDWmK6jcbTyFP7qjqAvaSyYMal7ls23d1dQ80g3GjYm1Zsy6RVDrHTZiYC9a00BxxkBDd7GOLmJq8rMN3GEnL4XbGdwRymm0GQrZT9BfoApJsxeUrcvplLSeqM5Hf89JSm97zR5LA06UrMcuU5IDaMIgeBm39YF0pfgt+FxlCC/BbHjvoEb04uuhNxftCT+beX68B/BPYoVwPFqHQTF36HQJA+bJF6YWkqks6f/GeI2tjM0YRA1RTqIHIjoP0CsAbOxQtZUOlFLUxnxD01zN9JQ3ZRF3EmqKlcLtKvI8ggBY+uK2ldNzNUQDLBjlZ5V5NCMewxY9J296KphC6YnRxwdf697+5uRwIi681sXPjrlZedmK0CdWDMQqx8RI2qh3Vg0yE2G0rXIdtOlrpVxCmDQN3NiIeXPIuEUE16g6eTZp86PtgrI5XElc+76Ku4jvImdm63R04QoNYDCa1IiSHNAZMdOtmwI7hKxmCc4i+iOvyZN8jpP9FQNaYdxPd6yuu9TrhO+N9tBBJedWirBB/BABdfff4MXiwW7sXaGb+u4fsrf2umXKNyAwgZAKX68y962tsrNN5OkAVu/NXXH4IoLFGcHykT6UdnF2mokCXe0XXeRte0MJwk+a8zPVFbQ6g1E99dztPNtKDpwNbqvl2AzNSRvIwgknvlt8w3dY6p9586pdJ0vms8J7tzjyxvTsnuU4eiBhTkR6JterZUMtWfH1NRkmDauu+BNq1Xdj277SKrxb4mNVSAx8cUik4CbxFciCniEa0CMH4v4/QVpJ05nULZ5RPCbYlJwTCC+EQLL0RA0rvCRubnFAnIb44uo5XhvXVaUfp9EaNpDTfuwKt8MRwp7KvQiaIYi/dsUpbkhNdIQ+Oc00PhmgsZ2BIQ0PSAASyE5V8dY6c6LDsY1kMJxkVgRDBKtX5dw9bYmDWkg4ndSS03V8GLIcqVKpkep+FjYbAec8z6+PBbwZHKinyujIJMh6H57eBK///bADST7P2FgmubW9CdEHV2yVqJV6y+TUrBD9hu9sNGG14fOjeV+LKRiThrO8UQ81EiiR2Hanta1TDrjwrLNhnETWkl61nWMLp8l3jQa+Osx5RTlR4xEqHO9uiS/iqMX2M9yHhHO1Mo5aM5b6Yf7uyATSbsU82cU6uRJ6QnMr4gUyo9v9AmUfd5YDQBGCcar9m8lCdwOBnlGsD7a9cMfmuzd9AEfnrox/geGOihlkPMg8OvOUU1Jn7NpG8OLNGdfxdjZU2/grdq3962rycnl9J4SOIAWo20ICv15IITWBvDNneSgL47eIJJm9e5vm0UmwdUVjLvKZTbrQs4trEIs/GBj4rtBlriiMr7crTxyXbadq1FOL5+jdOtEvkuns/DEO5FGv64kLhlafIJNuPYFBZFq2EYAZ4kg1AX2xnWaFvP3EGXq6hlMHCTN4VtaWvW2qjv3rF4SsKNVPri4TSSddspGCnWhm1LaDgA2s/sfefXA88s6iO9zV0iLFDAsFbTqvbUserXNX95zaxYrUuS/+884/kaldggGGxZIuygovtvG+YMor5Z6h2XrsnJ609R7J0UxJxiqlvik/Pzh1O5e6og6q/PJUmkxK/vO2XYAUq0mWd1ENE9UxwpSYo18B2l84uxO1xWMbdF95FdSewbQixADPwdXKFwZb04/r8zUQ5K6TdDqJonzU0g+v4fIKOqf6YuhIb6l9zeOwqPjSb0FTfttCFbhXYtFmIZDHzG7otT1u20GsDYqxEjGZ83PNyz8prUvU8LR44RKymaJAauSiBxchC44jtlAN5VLGMyOEtd6+J4RnS4JovFgNS/PyqULfyhQ72jvgRWlHVGpGEEPwd3C3XRkgpQBapw/a39HPwnqRv54zSMyxgZ5N1RFDg3bcHe9TCFoY7yN31BgAK342F3ZbEantMcaALWGwBgQRndGUHkLUQP84cGazNSM+eBo0Oh9jekzsSRMHYbXvuQypeiHoLoBXvfyK4JHS9r2YA1V69nEimfTukSHA20n1hXLgJLAbp94asyGFEsG+gdE5wf4AVnBSyuPnD3j7MJ/ArRaM7+A3OtltvWOFE25GBD68cspZeFUtjkDkDnUbTZtyaXtnZk24KnsWwVJhISM8FoNaGhk6IduLu4Vjb1P+iqZldUe/yhyzMQzSHsZmCjtT1gNNFUxVOX1mQqqBMpT4+vEgigj2x5S158jJTpXDvaaXOqBPz2SDlhVVWYapnZHW8FPGFTf3AfyMj3W+/8tAJBGMEtX7ZPMfqzFrlWGmih0yzl94IMB8rbFU5XVOvHzz58tChaDkFdt7mfTBOM/WdrzYZ3V5bZvwT2F8V3mDRt49ZiuVFVheItgDtcIP9rLifugKv++QqcN+WdXtWb5rXK2cnD0EeSI1RguiLg5IiEVBFhcwRU8opa5E3Clbg9H+izWh1rdcAJ6LDGQxcILinvjzvxwG4NPgbZO0tPFksT4vqFRlG7GMcV8DlY/3pHRN5OkoywvHSlXBUAyBH5Zukgt0ABiQmxAPaceDYQt6UUIv5CB8TnxKss9dgi/WcyZ5KOYdK/68WRXvbK3mx0upIu6m2J72mrXv88hvsSISwcRKAqA1WDc28lgXUF/z0QShXCXbgjuM5H+Aejqul5FrfZdTvAmNOCK0+/T11ft0gZkp0CrjrwXgpN4j2k8GIR4pwreyZCpvmcyTx5MuydXaqlrpG2HoNoO9EcJjfqCUyJ73Ugs9yl3jscKoTUjIClLxPsuvEOGnnpSTuYuJC7emwJHKADd0PVRg6cZTXQiFSi8p9mfO9Uj2YOn/95U7O3yaDLlzsJfScaOHtR+XXcgNz8fouJho5ZV0uLbbJHMzf7G6/hMJVpiFUAhxkUTwVfJ5iAjR3oSC49+lOtIEQtW6IS1B0f5NrMpDQ/iYcK1FIV3IoEHaPnu9v5DTQ1cCOS2eXAPaZlZT9huqjt6zyXGG3VkB7zHu4SQzu7qii40FGu8dVEATKhFINtjhItMFllP3O0q+BUNsp5dgh3cJufo+A1f2l2GoKruObbcXCZe+1esgccNp0PkHsifmyWwo+iP8k2v+2cE54jxaZzS3puUUQ8zHFXMGc4go07Gi67NHBi58o9BkpwxyqvxxoDs2S5mtyWN5Mj2ukJcBsj4yQAkaR+8rAoY88vmewQgwbjBSO/pfu+aysx/RNfPdoXQKTc+WYIuLn0FjVtCNTpOXiDhwSIBe+7QK8FMUyfBlrZv+evn3Yq0h5jDFKSmWdIPgpGz1sTFbwjBhUoagTDvHpfw0m0vq6Kn3O7tKnlZ911jA/W4gh6+pBDX8JdPHgYZHmFrla+NLFdb/b2T8yY/GsRb3aHmGF3EcwP6p/xmewkwSXE7W4YjUh20lCAecpTRhWIEr6fwPxGwHPgAqtYl/BQXQxbEWM0xhn3XluvaVFPdEnZYS6oow6qeEgaXuaKuH/cV6KVAGit1biPF5kfpZsvSEQoHCm7Ay3pENfCOofZUfz0Iv/KYxUaylCVq04+1k0FI/WHmHgYgIsV6/Pu9He9XbuV62+5Y22RHTTHQjGFbpYHV2ZA66oi8G/krw13cwJ2csjmQbd3532VcMxNL6qjpa7OYapNYvy4dY5MOTlde4faELxhazphgRxaFfQoW360X2dHMKSP34EXNIQozw0ZbU4aCSNIOfdMQcbsok2KkeSiZFVlhDYmJapNhyxbT57ax09uU6eqoIpByrivolTZYfFm4Wrwu94bg0rIjPKs+1+GNK77hxIofIUvR3bMvFSmYr9w046NSPjDiwWPXxfZ/qdNb4aerAjoGg6PM5jQIgk7+EYDjY4eepF7l6s7kLqaA5CDtAGrGfcACxm7ZZI4ce8zjQHMqn/xt+Gf8wtWbiDNheFaFerGqOyiilZkF4Dz6TOB2tf4iz3H8tx4L8SbdRtyLinhGjPLLhiMhslM3hUhvD9O29muLTOpgCYLqTZof4am5CKV+B0JgZ1JnCX/hUpAV0nltqY2R13r7ezmY0kDix05w1bPuLDYxz+rIl8jIfUZ+BL5QrCnpkGIIjjMgrwTJl5kFoE9MXFxNQSaArGkbXYoQwAG7suVKqWYhKXYUio/HBK/YDtrceRgx74wXfd2Ku8PX87lTK6IEnD0S3covCwbdmdQSfwg0IyEOg1FATOp8rdscbATiXH5qA2G1IxbBMO3qgY/6ce67skmERtpaGjp18JEtQPJ4wAI0Ftg3mOD8BXRQPA6zA/MFNZNkS53G6lkSbdW2Xq+W+eqr4MzSkpByyg33OTlSKGoSsphjJvvYmVfxBptB07YArhU3atU3U0Yu5ql3mmnkCg+dyS+Fb0C25Fb74SHdEyCLK0+ehpf987y4WRz9DgQztZYLOBHRGFr9oyBV7iaU4+wXSeZja1E4pM9lIx5K2pbgx2hTOcDauN1kn3p91ute8SSZkldx4WMYdOOUejl1ruuT2eCPr1aaZvrqXbIhfgBNwRq94YuDCImOMdmlUNM5QTQ4LRJCQazVq0mAy7QvOwQHb9STR9vhFDXG/F6B8OCXkMqaaVSR++7sc25BMTP/Y8CWsCaFMFeLX50+F/gLSKZmtRtz5cUJxFYGhmiqh1aJNRJir9UsUSAFR/XO/3ApZLkyZSNHRr2YR24USB+LoLlIa+u07SmpqmEvvZ/IrjuiskK8PhwZQ9OE7hrX14pYRu9QzIg5Bs4a2wDstitCp25oPuxKaXCsv7qWYDuNrqXwfvbW/MnuHx7VEuGJBT0sMhVpuyUxPlhTyNpZBow8j7uPIGgVRDEMJjJxm1DONVkytkw2z27F2PUFLi9fGpYBF+Zjn7xX20SJSWCZsxNxMuURG/pk2NlaQ/9SXeAoGwzP64lMy8mq4/MAzW8kftVQRCaOH9TGK3fpvU27DozKATdgArL6UFLp5zFV8lcoFCBRIGNqDvCFQABAAAAFMgxkJpHpMjZXmFudQeM3tTO7aEhDzF0jc8iU1h+z1/n0HgQbajfLh4i41AoqQVbYpK0e5FpPioyKem/yDrSngO4lKHEdWUmLHw8ouIrBew1MX2u7x58s+sK8vgnDnz8ETpARjzaebR3GW8GDDYKDXWH7lbMCGrJ7Zw3ef/z+xr2X2cyaqwLySIsJ6DWHvGOGY8pNNTS97fhHPF3ZIz+nC3zJ8YADlpzBRW9B2LBaa0pKpjQmJfgXIDTh8anfkgjpwzZZrF1LTJs8euDI8uu6/ze2ahsJeswe1ZLI8kdHdi3Oc2Us09NBD63f6mcWLaZ7UlA0R2GwISKksTfUMHqO4YxrMIao/ZcodpJcquAjIGMzFTqAAtwP1d0DtkfDpLfXWZI5mFkLmQ6osDmaI0ybnDmsea9byjWfSQcJGF9PWBb7lO/T8b9nVDEHWz4Jb3a9hPZgj2nNp8oRDkHG0T4BvnXYLVBov+8OPe/s71HMTSq21/2akfLKfhhghOArJDgDYO0nZrdmzHq5GYmlAB2xN89Q6MVSF8RtG63v1Ulpf1YXLpc0SWbfl0J8iQvHtReGEEDJyF5HZ3Numtk+SFiLMUW5syE3lyBeSUL6ztZHMuEePH1Hm/v+DUOBwJ1zB8uXVW7Afl7XEOE5DYaCQchm09P1MFJXWXD2Z9LD1vl8eOZuvAB0uh/WUdnFVTJbwAz0s9BEfvJ+BGQ0KFJK1EBT7QkNdnkmW4g2Eh3AFm7IMQ4Ibd6D2UogLdVbLUjDbGzfMCFeWVL3dKrQA8wT0aiV0hKIb6rFzZRzr6HWV/S7B1nryQ8TAg0PekHeKMmHRczPm8QzQf/R5GkJjQKugWfNQ40ks5/nJ9ZGArau+gtW2UUtw5pLlmr1yxs9OI338im6FyN72ygtQu+9AjxqrJM2AhG1rQDegExVAABwBVCSoGFIwDjVJl3FWOM2tQlTHd/EwiQKSidr/hR3RYq/Yf8EbVgIkT9DpiMfoNdT23nMpGfqmgOIFdDSKVFtZPvMGPSn9Zr9rDcALediwkHSYGdndcr+UNCzHVsjDypYmJ4spX30uYLq2eexdBLSFa/bjpRrJRN0zqML+rQ8sYDpxIHlAmjTP8YFnOI2PH6XKA9h7DXWWHc2vToWFfGFucb5KCSrnp0nVxTt7ZZX8T095UGxzWgV/CsCkvH4MuGZZ2SzJf8kUlmlLrWrcwAtVFDt138JZunLUxueN7HRKmSbvFa07GEzRewARiBIA2E6q5MhFg1Q8EeLXru2SKKULnTgDOVCnbK5JiPL59wNOSeAjgIhYQzp/sjvFNNro06EHEUaVftPiCoxaXKotz0G8WKbcgZyK01jt7I/dvVYsrKjzv7VUZUciX4bNTUgTz+yMFYcnFQdixN91nWX/rsPvsrA9s/ddEUmnv8iDSLmw5J7zy4KEmikEtddokdhgA5ZKg0klT5+FiwG48zRGapDv5eLkOILYbbWyVxDNSnCYOFiYnwqdTBDfdapsKUIhrUEZ9KYYUdgGEp5EcesBzgbV+7tGzJNm1ibGxb8T2uGlEeXfxw1A3lBsrLI2ajLtBhLFcsq9x2C56Oz5EWn9EPWB6xhaAluBWERC5ZzKq1eRTtK4y+foxqIlz1ZdYjFtCg7TTyji1uQBr1xGeaQm2ZmWocRHzcwXfUlxSuHmEE2MqLeyhoTZRPEkZnOqhd75cAenblEEswaqjHo8DOwXOIeRvdAMKWrNTilx7BPf9DprYZSUJZY0fN/yGuTK21xLf5e5LUMNwcW281IQjJYOK1UEdAJwAAKlRdKaDTaGJl2TUFv4zzXbZmDjFVa27OiJ/FkE8Cn1mDnG/QkedDVJzNgLa5qtl4h3wjeS8nxJTyBGJB/maiuC77l+P07x92266UmZkYtlNlxM1nSGSEzhayBxM8AQ2LoAKorT8FXaGIMdiDS5DC4ipvrBXrqOKNSgizFyQa5Bh3pVST/QKI9xpKbdOgehzQTHF5fneuDhywlNOd+75+Dw3v8ut5dfgRH8aMwqKiYAJCAdDkis1epcrYKxQwCTnnsD6sZ4L5zaTd/cYmjhD5ZIxZ1qS4qozz7DK0TXD+/zoND8K3yNqzYOWeLSQOA6fidhLrpfnvAtSCFvA7ipEbL6LSIkocApdksfXbjuUIxB9IdiN/03cgilCN7Ox6bXAReYYSphNUqDXKANrcKEi0Av5x8ArMMlsra5iV2ygu/jXcc0kPMZeIVSJk8nQ+8UD4q57aHk+vbyZFa0UiyQcmBxPwcEFwtKv3UIRp5T78NhaM0ruLJF4PDhCRe58SIAAIdUUgAaztnIVC+ZWboNUpo2B1LuMpV7Gzu7cwqz4HD5LYLbvAAf9PejeWd6mX7QWzvFa6vN7HrcETceE8eZ27pz+4ZdQTE+MukUc1cOoVrfV+VWur7vbNzhjuYW27KIK66Ri3GjWW59faD1D9ChIFGHAyYEZrqVT4bZX9gSrvcHxJU3UwViJiKnA/l9ogJ0tpZgnAWHtyRLUG7DDU7ahDwH2wuqVzKMaK3Lny2Wfmy1SUEuPLSllsx3OD0QgduX6Xcl4XksB1PUmPfXQ4T2///iFjaCyJqh5IPbeSu3z1//heDF4+fVdr3xmPnHcbEjgASWPDdr8H17Jpu+xghYNIWTavzllM94ao5OFtYkPegIYZk9HfAJ5GbxUX1hJeUEWpFbQX8v8jIDSp4uFj13mTWVWdwhpEYeglyjqJSsdxaNTS9kzD37Pre4wmfKXNen0SOQRnA0TJCgO1lsBY++IP0Z4f2OQg4GL+M4CkiBLILL2DB9OeYcFUQ7QSRL5/IDafgw8nE+OCLr4I7DYbN0uRSbLxCnNJ1qe8qBduFOKubB+LXl6G4ucjaRLflC6VaGo4TTPADtEUazEx/ppfuXdyZ/5+etJ0sc5avnh9Fh+xFTJlD5swgin5A5QiRStQwD21eSgnpxQY1wqM8+pKjIe7n/TijCVB5iV2PiEunFxayy2We7wHVes1cQMh7pjupaJncvq+ATNDnBBaCm7aD0kmDo68dW9RnrXsh6+1bSh06/CogLbm/sVFS7VcNwG7ClrYaFFQpIEjuvyVvFiJ4xDvx3AWpV4q7lsZIPQ1X+nNg8wXEuGUYPHPiVylQKfkLcQxVyRS6mLb5SgyjzYOgj4U6ROzBMJuqzYjeQnD9oFsS2SxUrsg3EzZKjl0IsYO04vMKo8+lxbzUy60d56/NdHuV/4wuyF3Ut768F/3/Aln7XdrHOq9D79GF0C391psHOx/joWvakkUTaDR6rGGouOrx3C1Bb2WVvdRfbI6rqWdI0V/tAa7iGwrT/ZywcHrMAAjOZFILoTzwELnuEerjLY8WdwoQbVgN6XsBAxe7uHRwu3FLTJFnmBIH8s8Wyg0GTwLqkf8Ta7O5ljpCssgtKpKaUoIpu/6yJ8PQ5BLsWWY1Hgk7qKwTGz4EpqQ8lLRvrEYvcVgyD7sBTIbQ8BUOPYJCrVLjF0pSI/WRr1lPO1K4F3VsGPJqsYD9qcIDX3t8t5+QVT04EULibTeDQne1Arj1J4+gm75GuyFBtcLRXDhSa8k0dS34ueJ206ZuUJo403kNFZB0pD4MLCv44fWD5u2oDB8+gDtSSPeLNVDvP0i6rt6LlyKy3g3Uf+blBsKxtzeACs+GyIZ5CY72t2RGX/zhTh73+f1xl3bGtE44UPCT4KxIYTbPyzRkPtlzkgx9x/JaFAJziOlbknJaQnyBNGjm3BJYDevlY364tQp9ap8xWSQDDTcFtIML8OxwmEJGtMPURF29Vw2YTeEW2Nrxd6dDIo1u+kQv4CrXfWVkuccqNFNpQn4iEo5c5qT7Lrwy/QKeyGthLnK1YKbaG8iKeNNRQm6Y7jxzBM80NPIxRmUXFEhrKBWsVx8i9TzaksYMPFlDBa6JkIoLHqDVtY5ZWDNfqjWuO5nwqYTnXFeK4BZ1tZj/3bvBddGsY/GyxoaCUgSGLshSx+bS6nz5Gg/AyQN6PcpQC2eIyh18FVOrlWfraciffuZXW4LXuCG1Dis9TL/ww7VrFRpiqelTdpADVYjrPZOK7W1hFBcuGnDXPoNXVycOxTjTBWnipm+bwvECN8JJIdK7OkY0+Lh3ZOdvX3Hv5zWcNE1r/O5YMO6Mlurh0cOIRm/ueGCa53vTbwheHtt/dx/wYv+jhKEjDRknSlU8XMyskmByCQkXprqNgRlDDvQOJ6kDsHK6OhE9Wt18VFYyby5d92olCs/FcR3ql9ik2LnlGti7F78YMMX9nta029axCB6C8POcLnSbX5akmmuvE7o2Hr3g5XUn2+XHpHgjAApXPeQ/FPLy/MYieFcCQGKZPgA8IvKJNa6MERgXpQbbj8kQIy20IniImQP/muZnDgTRR8+cG9foIjdAymV0bka+WE7Viw8VvV6d/aJKUospaLH9IkiFOlib17ykXOfZhFx8dgOlvvxuSxt8FYIUP4mJtgID6S9CkTh1RoTsVHmoikK9OyrZpITtpZ4A6GP3PrJWgkDIEvH6BkAtPQxu6AW+OTShphH998ZiO2BkPnkPQ7ZJszB56pTJyrb4uwEoIPcVvXHih8bk/g//r4ycEa+pfTRNTlKDniqtWCPGPWW08E/hubL7hs8gb+hk5Ywcu8MIVxnAR3OOBbOMx/4Bv937L9xqEHfA1xKRNF/16OTBqfwD2DpTX0k1RaePZt2UNHNJvIdaOishRT6cMXPXKdxstEL34xLN826h0/GvoPImEZpvTF4reM1H+H20PaxEDpizBb1J89eLj+R8RnKKTraWqUe/cqdbxv1kIx64yxaFWti8roTify0Kyhdlyf/yjPFKZkkri1Zm/IUhSWBQDZnZz3QqXj2YojLTV1o3pUgAM8ILrp48UgNMfR9NxvRO7ibdEpVi9Cl2Nq/vSQH4YTrT+pEDvsTZFGaad3tZTG7H6QIfkH9ZUKOByQyC8Q25VHqH3yOpWQvNH3j9VMfSNqpxuyTRyfi4mSvaR4cTBsl9M4Isvkjzx613KvEy1nYiCF8T0PLEQZ4EL0dolAPOt8pTFp9zUxIQ2rSaSz1eDvRaE3G9vwnzfk1V9xm2dUxmY3l+a8qI/19+DOZN+mfNgCJoKS1aXkvoja8iPbU2p6eaZGohM1Xa8FX1C1iAEe4NvtTeRAD/mtbAwmeuCXV6Ewld9KBoejYOGxcb5mHd57oVqIWxskiQ31hwDXxfX03G9cRavrU27yMk6qtIwlqNhmQ8D3+QTcbPJofrV+pV44bU9cjE206x66vyM0G+Ftu543PvT+Wdtc0Ii+6WOimvAEIi7QkVOd/gCLEDUn8VHsVqDu22zWflpDK5NZWepAjwRpQ6uDPMWHicrrk2PbLfn4wdWq5RzF3JTvYzxVBjhDF9fgFitU82J33J/Vw/9zcgcXq0PL0lgFQQEoTzPtA5Kw5WZQiTIugJwB5sJhR1CUYcxbKb/pJfKdwypFEEwESIbH2/oYtELEeS/lfLsfD5634ypV+Xx4xgjuPmSN/yEL6T0DZGHgAzlImJCCe4jwYeITVJbdJQKTiCy3scrTixPEmflzcrjJTrnNecVLxd4C3d9RFuAIuWWpwUEYIGi88XMJIPcrffAe+G2y7tB8FegFuLOaxieHo62Dln0py3l+9mL6XI9vIqm6wtCOBE5/0OD2Sm4gEjQReV8gp1sDoh3m+jEAYCvX0JRLWotFspkKwBGAFe/bvAOWovjK/9E3S9QDHv3TN4/bhIEI002gEMBGI8qOPHlKO3KZ0yj0hjRbF/r58pRj6Tv3mKPW3mYyPLD3JYCvE4/CTfddwtPTRUxUIGJlBCwJZVLfzkSeAvNz8ywwS667Vj0HBo5+wq2qtKVZmmicHex6pBwhSc25qzkhVf6Gf3ymrSVeuGWZNtYVbP2M6nyzTPqxAP4YKsgdoSkIqoXIYAa5PrWuYjE25G8Mz76hiNxmADqr14C+yFZjE8wGJcoateQyEhgb1BLMb/G2RAQsEyEeY/iUw4ZtvBhAEH4wyLCQmeNiC9+WMLaYOtN3zJs7A8AuyJIed+RTy/jR2WJwJeZyD2B8lD7Xz2QrpGo7McshaeqjpeA+W53ZbsbtVO00dAxfqAFKYIvxo706MysNWNUbcU216SxAgT5vWM0VSz/aQfI3c3CMcR8XSwlh6Fe2uNDtaA/qPwAdjDVFkcmTRXYWxIV56kiHtcNuWrZ7DPg0U5wpZio3RKrlDLfm3MvuldmZYC/gM+LlGcnvtP733c+JhFUnXdEUay+ZwhHe5foWBkHhpaX3fc010RxxjU9tt1K6ac0RtaLbIB50z6GCHZKvCSiv07IpsckmpHPRzUAFC0Z2MmrkmYenLxtPxqz5wg//P14kwr33UYB+lDjz1yPDb/gFyvUob7xbijcCNt3wEFB9+9ONubLqVipWogxmTxiFbfyJt4BShZkolMgQgsmgBYf3mxf0YXkC9enE7tqx85KE7ZijmbaVRkVSdMnLfD2e2yTBdkZjFv6kIuNnMvKGNQCNuL58c8avQnTZfizjC4Sj6nQUWEk/gRiES80chWbgIYV3gyRmpn/OqZZaf4WaMTbZN/LY5oKABFAAXhinuchL44yqVSs87N6uiI8GAZfwL3R10BChgqwC9ZOl3SMppE7TYBzu/QjhF2wdgjQbsAzLy0qDEvWMYin8+40eWCMQQ3SgZbXc8K2+lgxJQ9jKgU8vfV2c2mA82aISDXxh+I4MX4ZUeamsnQphbJiwzPFxz6O69y7fV+QfJdbb+hWDYT/DwcUXDR3/0NCkz5vQc4FpEcLq+jQ9yzGmL/RFMKO9cfTmTLzcHfJK/w1eg8edlBP7ddMiElXHWpOdyqpZ03CQ0omxm48MGifByLik3iACXgwCikKjZ06qwXo4DL0tO5TSbL5YaozATBuRogoYt4nuCgBcf1f3vBGfF0pFEWKIN6PaG1SSYYYtw1M1aG8SGm/MLRmc9x8MpXelnJC0osImmHyHNNEsy2zB9IcbkdoN3qsXa4sXsVBVMNp513nrqFsa34KaWAQK5ua97EhRP2KwUfRjfR/9RxZtrp4clqVKA7QIOMMgtu4UPoIRO1wvc+6la4wdonD/LQX4sZ60PP3PxirRH8IRnHNOYfUyiE1UILq5o81UIAQ71jGH7mpdlntuPlBTmKDvyMRGCcwBNJku1pX/Dr0DYT3dlOYGveVuCE6Wgx6vA75B4dzyvHpL14N9Bi+g2tDvWpUAounqLNPjSzTsPg+jwHGeeTtWpVXgOx0iw3IHbxv+gyFDqTSbys0E3+qoQ+QK87Xk1uQxYhcsHSfwaVx29OBkOUSW4a8ES9Zf9TbhR0ut1ZL5eXEgWuTODZzWoTkPvuJtryFbPXMgHTbVzQ3WxfLmtwNl1MIcDOd8sg9X83auli2BXRib0REqgCA3UBPKznigZoNaHqM98Ygwue/DR8C+tHACG9l2HSbMvy5b5IMn3q8Oe1fEK34vwPrWNms7qIVw3KWkLCxknqpXDqOp8T51f8Ds24/qyR8xIVWTt5LE7jyzQ2x41ssP01n8aq+I6SLFvCYslY4CjU2QFU7/zd/o2NI1h3cLvbg8IJGga8TNpW8XWp/zEP5RCkVhAzjHsk4pMoRfuoQtari7d0ehErZZXA1H/AWX5gR+reFrX/8Yj0hMnA3odV2iCTjlD10HiazB7RGAqD+fAdz0nfmCihPn+lRTpXxyDAq5RSIMRKQTcvBNGrPSWoCGxQIYUEhsAGp0UuZ1GXvTJxEtgu9fQCepERNUIbLO5NwWxopemkeouE4ATUUXJNHCMPq01Blxo7I9TrJQ613VZ82H2IGQP4m469YETgXiZYRlwo27g7L1BsBmMZ1sPuoUAIJXgZM8JAvGZIVeoGDG98FeuhS8iwZNba4kbNo5hsfn5Ono0w2lYC1pMasM0L1oaztQatcqvhq6nbkhUm4edSTZ7tTnirdEjnP+1Z3FFAo0wcyH/O+a0Cl/euXwvPVp03cZlnZKYjHATE3ybA4lQuVgOkVlzJpyEAOu5yb+aqXqyVgXTaGhr1TRiZ/2BZM0U9Q/Q1Sy++5fo8aXv6Npgu2iYYXjnWsKDVh2m/ppHhAPqH/ilwlJ48hLKA0+eqL4/afJKeH+akQxDfAbDJz068Y4vCbnrLPnHEKCt6W8TbmwHJdGy6G8YZMq3nXAWozcWAm9i5WJ6FwjdcV0uusPhk+I9QyPcQhigwDK1LsLT3plgdfOxYRYvi/rJ0ETxj28lQlbTPK+MADwARR7cSPi5LHucHHJpGapwsBSyGJkJ2QCj8wdtJtp662OnfHzeemDClP58gH7OS32r/2RUSeRJ1eukqzEPNUL5z+RFbN8rCFvAKNw4u+PXaWliNPyD85rWE1UYYyKF/fCPI95+8gGNsZGvGIN/cvLJe2VGDuQ8iRdjf/I8DZqX+D85eibSO4YDvlKBO+NT63H/h3eWUm9RTuUP6MwC1Sefg+aTIGqxPwvoJS7Q+4lCwM653SBP1DHDrHhBxwC6vefWqMe6fmp6UaZeJkzU9F1DIDX41WxQoKjmWmsNxipKf4ohHAfoAkntIq6Wmds7QnAscO09/oqhf4/lCmlOAt3SCuf+0Fw2CEHgDI11OcSUbq2NJYfm69YREn6NF/k7yzpLqzc8V6n07ulOV6M83PgPV8CUA2or1RIqFD9/j3g0jqoWkl0Nm5myZ5F5tGIiHZwHtsqYTARQjYljEWciyi13rIG6eI3ZdX4WNdGRncA7ML89t85HFoZik74LvO4SSy6a0m4tZ61Segp7YNmUkY5fGde9npe37r+YMrHR9M4MFr/d3bNRswZtzuynnGb/nOFjB+Ac2XRa2ddJyImLFF7BWMQfqD+dky0lfNNNV85oGOCjsdwSFjGd43SIqo0WBmYRBusL66qZyLRttVGW+kgtgkQKlHnyBh+2RxP9m6xor/EJiFBfjaaTvAYVCaIWwB8hCFJblw0m4MdIR+FtP9QH8pb2GQeJUrCWy3L5k6WxvdR5HsE79RgjTi+kXAV6jMAeme/TjkZvwcwyj1xuDltyjjdCJeUqIQqulDkkopaeWGEo6tRolru4/BqxFKsSoMLFB1Zo3WIYp2S5xZvDJxcGgbufsbA4Y3msAlxR9d5TTj2j5O3tMZT76gWrcj+oZPsFIiEl3+EdcYAjYxWk7Xf4mhBTEkzwzEXsYU1e+PfyEVqElKl6+HYMdJx1e7BKB0QpyoFtnaWOh56nHzA3Vnwf3JI/0yJbopOd1STTzvvzC9/UB+f9rBX4/qMyOCEp3B19ubJcJ2IQEZgGvEltX7NDuxLjmIN7g/qr0qw2E76qWZgmMoXHnN/YQmde0zGY+1cDm6oDR5bdxnn23O/ZMQSazxEy2gMZV5tQfPzOa9L4zS/1tYp550pwQsRcziSzlvRkbaMJwBAfmw2gggBONtlp42MS6DlpAc2PfKrK/j/wxgkwwVZHkwRGLsOnFzbWJdTF60+GkjQtUstOG2pRW7YR5nTnNxATfCoLzq92+rmyiz3Mke+135Tmatb4iEn6zmbxlsxi9Vr2RPHOnBuuhJKkyKbUPnA+vst9+f1TNIqYFDslxq8IpIf+rXsbI3/oXOBeY0UNip2jfuIc6KqjquwFkDYzFSkLgD87KkuXlFt5W4iabcD4axQBGOhDZE7rEweffUITgnrKnwohbEEz0kSVfJtXNNjmBBa29uXCiCVQvF/i15JXm/A1YfwkmRnIMdgx13tmaokQNMdZsddFWhVb5C6FeqFI2j8JyT+HQtgCnBGLVOMi4NwB5eDk/yjoljqGJkTBX8wjv2JDwHRIY/phUAQoyCZBLHkpyCkPIxG81DAtKtx1y3e/fVdzaAf9MGgCWc0cst/4mLZx3700IdFmQfEgY3DbPDTfKNWQrpY04TnJLKbwldh85Qn+n/UpdthTMnZg38LOfCosTxqvgiMRREZydV07dKiB2cv0ytkTJZiZq+vMYXN8naVJCcjKLzw6A2szDa0mIVUSYtTntyzeYaILb3ILI4yM6dyC6LOk1ZcAttjDWh6ZEBVnBjS2XuZDO5ZJoGyAd7u9j5iVzHE4SbdArtQmuDAn52uIoaubBwrfaCmytG9FsImhnQ3dKYYgcXZK6JocHQHRT3g/AtwoE/PjWCRO/SYJGliJretkj/G9hZ05uK0yWvThLNypG2yH2A4a6lIgd5Vk6WCXgwTNmt+ZUXIQAOZidRqHSurN+ewuLl8sGh2h0TXgLIzlYBsTbJFoXzQB9u+OG88D4T1rd52ZV4BwtDzEMVOUPcPXx57/oftje7kiKxWMIurXDTb+DAAez5N5EYfDW7f7QvuzngSSCcn8jdUgVFkP+oq1g5NRil09ycgofKuQHFMgZDz47vs3V/hXc72U2lHSv4lsQpukFlyeKKXkcKAlfLa+Yd09rxnS81STt+35lUWZDOFgzIeOWrQG6TUUiFBCzM47XuEwqFfz6+M7wpW7Kp/hwxyYKqutioXMgPbztZzeTdqH2zwiYFU7D+M9wTm2tU89rutl19WdVKC1XRshyvIQpJO3lY27HZyW/9REL+J5BtksujbWyFNLF05MqDR0OGgkmURS62NDWK29513ECRQDyrthzSdb0fRzMWXygQalB9ZjxmKR68gYyaj1AbBvPfX/fagiAzdjwAAAKXkgIEikhOlsBR0dQDx/LsOQzT0TUIhBlmIMF9miTvUmsLSc20V3O21DI1gcrSW/8qBBJ0WHCimqOMbe9LA/eOcibjY0VohGvGBT1rbZjAhC41JgvacoDcHl23pZGZsUAm9kqEehZPUJdJGBUNZY0GbkkAFJH6cQ4pNYbP8fhQ09COZwE8QrfBZF+HWI6jbTehzaQ/pS0/o2/BBWgdMt2wtOsQ10jw/gghLVUUkpO+EbtNSrw+lMUx6UEVaBOcL3htWzMTYzjzRUskbSlh3R5oCRZUAXntTMgDEEXUUSBm9rPY6l690ZJQ+PzuNlJk/E8Zg0agblHGn1F+PWiJZ5XCv6pADjllu0T/XCTO6u1gTEcSCrFoY7c8F7f+MQpkNZ8UZGGTiMWwgHMntMHgu7Lp0ybbNX0EeeAmvnAuqiuk6UOG8CPAMRolpOhFg7lnjuQyaLj6DuBif/82O5vfTDnFqkK6DsMqZiZx/sXGxIe6m8/3jsjCVJc34jPmbjQ14UeTpTy6nXvK2uLB+NH7GVNVaAdm9VNQQ1qimq4L6xTmE5FMpCQoH4bd79zdRjuItAZgYZ9P9V19Sq03H12F2u1IHWHXsCOWFFOPOc8RBpWk84FU/AyrvxCqfsg1ODExStcC5l5yr+nZBB5EiVPmv66fVCtUi4KYEgC9wIXjoeAOzQcxvDJ3hAMDhMkVlBs9BWWix2fOvvNzf2OtJ6AjeG2BpK/2HVSwaM7kfDrjFUgbr+DX3n1pycB5E/o1UXXZHrH0mlbJLxrfOwribcUKofIJJwbwyZM8KrRKeFyp4onP3VBEyD0j8fAMMmPXkcWqtSRB/jmjWYREwmuhJvZhbdTb/ZXAvs+A/XHdO8W8o9TTw9hVHAw2WH7X1xcrnJ8eWaI11w0w/vSDUUem1PZQ00bHs5nfwIJ9a7Chk3CLiz99HEQXGY+X3nXQgqECuo2dhPhMHkCix3R/CP6g27qEoiSYBqrtJvZSbIekmkz4AtjMpX9d+GNkUl9o8od5U/d5zxWD2B5pD5okye3mopXd5JT6IMayz9c5AJcrVILZUYwBZbqIloLOcDJ2/bwFmHAMJaLAj9xkORvXwC4+XHxJxG3idcGX9sO/SFVCyHfZqv4aO4Ndwm2AMY4x8ESSrVNdIyoglUNRITi/FmystzsWEjR1f7SFWBrqMpWID55E7ddnLsaoFOjf2AUG5IcVHRC4gJqRyq7ts7FgO+4sSWSASaKLR9iJdkEk69lf5Xy6jf0AteUhVv37VUT0+vzNLc4VKuv0RYB+bWdLUDGOaLiFPuJ9X5jwfi4f7f+6fxr9diAA22+VNNzoxPAMg+uXg+hKVJFkYi2K0L4xJ7mJTQHyEIVCIInZs/5DnB7hq5FhH6QVdNetjAIExn7w1rC2Xyw4CWMRkUXhI41StFEIAeKuERX5O3Vlx7HRyl1bngAJzoJvKqbLH5N+CWEMm8QUNJruBP6MuKpI6i1B9u+n1pc+brAlXLNegfL6tN0WxZaolMOq2KuhbU+4kMx/dyXbQtBmoHWG3Mh3wFv8KlpnEgq865/uxXmY/PAAoFPVYgFIAblNu1FgY4CB7qX0ZfiVGQ+fyT0M2Csz3Z2p6dkLYa146ey+DC4oP/hk+QSBtijlFTeYqkqb3szmkI8PzZZ1zHG2xoXaox1DGT+szndPm6ZTCjVJysxy+Ng+JBmm+NEEiEl+B7iDYAYnpNi7n19ilDLsukUphqlQmbGPNxllUdyFMomET2hjnzSQhv32Rn+e2DC5+Q73H5Z5cUR4j2CgBV9hQfH2up01B/sO+0x/H8DiuVW29+2jAZtHfFWmSSCnqYb0SCDQiPdFlOuI7CRxiTmdz9G0hzuhemiRe4pEXCix1XzVA2ldmyyx1g2pB4HrsBXBDeK2RzoYKP7xHGhxH/5daf/9U13wW2kIUaoQAgB4EwAAAAAAImP50FmudftIH8N2/r2ZpJ00zxKtIXdW8VXovH9A7xzjPtVLSXvIoxGqC+G8X3kPIQ1WDplNgtstuLce8rCp3bH5dfqyJlSmLtz/pw3q0Xb5kJe8BbzfOyQ5cLHx2CgJnSuDC3HxZ3vYM6PvYCdE14CG4K0OhiO7NJh4rx0SfyPMrTlMAfjKhyXJlPeETVUwVYHqxa+Vh/0YK32BWnTmel0X3gasVQznf2ooOdTKe/r7UqQDjzRNbbpe4kjTWXG1zy63hZfHHEg3kGQlGAr6f0+42NDqvh950sylznO5Ac8+YvVoS7h+ClXueUGd6+vtK3mUgyir5bai8/Su4hbcMSKikwSJ7HLrR3HUTUj0qvP6HSV0wKuh5WTxi9xeih1J4TeOVBmpS3zOC3V4qr1XnZe7swptaqsKouDu40MpPkXXEVCqQUeVmtcXzb7xRMYUursRp9Ws/Ehlm7/5UTd8fag55dpiqpn5zfc6Bfa90+mnvN6iIrA8ha51T05YKmzKKM5M7sML30nYr4/TGRpJjbuuhdmeRq2EgrRjUxydyHmj2AsVjHmFDD5DwxVVWkfurOkoLUsASpy8LVKBu+dltl0axg8UFZN5cbAAVwsnmC8rgmDbqnJd61sXcc6kLRvEjtVhlvE5B4Vz8/6BsKTzSC2yFtBx/l5JteBpbP3i80IWGzz8XnhRgmfv7/1aVbme0D7lNU3tjzy2pn5ewVO0rFDUbE/ceFkN2SlI/n5hgA4XzPGPlYEu4CPDD4EXuaA03jZ7TPpGGklm0ILApfXqOd7gD5ZkEJD2yDdscBxADMIF7Evc61bs53/ZNbg8jzHPSKXOlUC9XVM/cr8bpZScuhbjXV1Xh1eaUZky1+oZUyS50zS5hkr/P5TEs/AcayrR7ngA4U8dbf7qCZa20i+aHMWpzs8EpSluXn9SGcBXXGx+TCHH1+UZqoM+Nu3wet/e2JmvYOKfONA8Oh0/U4tYaChQnmPc9B31EOQamPAKpdrXIsNQtvt9GGWVco+jVwgjFfaEYO9DkjFtUaHZmF91q8fDvWVsQW11TQ7OuYszBkLnX2e5YJ4yb4LFZIAYnN7OEjcuFj3MR/8K/jcepDkQbLnjwzEr5ZVzo4RtEdtu9AhM49AmXkzMybUXkXq0O7KsqOvMe3CTt4rul+M3TDOQss4N7OcoieiAObiU59WiRuOB8cUciSa3QwMiS4VNlyY9iETmgf/aMWCySZ90d14RRH43H1nKgPnVwSSV3b8TTPbMafe27RkCBZAeUlH9T88BCDBWBibxOnXdmYJ29H8ZxEu5Mgh6+J5omuuQybT0UaUeL4GoWpa3kxKQ00w+lzHO6qhSYV8YPSXaxx+oWdFfVu8zNz8ydy+3ace7pcVQsJlJESQ2Mcrg5sWu7N632FBfQCng5lRZfIHNiVhSch2cnprus8uNobrWLKTpqt04nfshH8bY3DYYu2EyXDceXpdn7G5015HtUAjnFJtrCIEk4iEYapKXmlekY8juUoS4SgOMQCIiy3ouNhLjlmZlXde9jZQhY/CpJukvQPnSvMcrrwdNgylWekUKios/LOaeyxn+JyWaJFKZmKYYBM1k+rDcmLYn4Ez7qoXvYfqt3E7U0Es/cl0jUJEP2GkrCcXggT56cMgoB7CrogyY28qpx9i9dNF9TKNX0OWdqClrGg3TnVDkVky3llOyX/gYn5PUa3yCrw8Vaqs/+YauUVsqu3NuxMpJ3nwFTOX0fbB3hzLcIYnFimqsX15jULsXzyUrEkyme0NGCX+LtTnAHBd00fDiA3BDov5X91e1T/plt0692TpNEsAq/OGq9Sg5DduO1Ui0IEinCAfzjq8dN7reMxr7/F56YYaJwA4qByCJ196ZDsy4qddhNWujntFlT1Y2Lor1Y0SOWI0DH3oYSJRmYMDCKKELbD5J3X9mnpGne7/ybKuWdc01EYoOlKhu/V5cJwW5Y+4tX5sGfMx0Upe+y8jRMzZXg+VWaMBMcREjYpB84pAPFTSksKOaaXGEhf04/ZaDN5mZJVS5IbM2X8zvCjAafYHbCRqHOnZxlwtWx3jeVkcRShJbYa4VWTW6xqM0xu8UjkG65wQ/OLlmYW+dyNdQKh7qoJ9co3NoeW1CLb5LTpvR0uB7/VeQ18wi2OvFmRfjLQMkEDIkTavQgigvEuj+CPdxS7dfmU01/UTUa2k4Mzx0DmfYAdqpVZ0jz0mDyQwiqdJbYaYUaXKlMVoK9nIKFmvvuRH8tLoe5Dpwwq8071mAEGssk6PbatwJEPTZJLFhy5M5BwyO6Bx4dGaBVPEpdyCergESmHEwJXFbW9/XzpyAQcoTpaeoC36sch8dd0TzRPSf3E06LUJPGRFabJJl2F4naRWgHiMKq7TmK6OQ2+3a8Me4gXVRA1A/k3mvZDBI4elR+x0Givk5IL5Vv42f8ZFy6WPBRx7PGhMqTmtPOMdCcpQAAn5s+UZbwjgOCh/pOtjKc3DL1wWxKBxZPWJa84yi/Vl0cUe9F/o7sJWMoOYUDvALaMmgz7HCCUw6H8UlIU8nAVE9OihVdJmKPkzavvnRVhRqcgwIUI/WDV4TwfUYfxDa3NDZ2daFoGUMedv30vKj6onWjhcWWx+AHCr7+Hz/TVgUKCzSmjzQtNqQbVWwMwBl9cCZjLvdbXHpugEvRxWUJqDrRy43jM5qxpHsOnp+a6sCXqBhuGk5wkasXgSMKi8lAun8FT93x7Y5lJSb/5OzBRKQefTtQn1uk9KhLW8Lby4O5MxntGpkGcl7Ft2nZW3pdRPDA5SCaukq/jgTnprHj2f3uTpt8FE9J7qJk19jDSrlPjggEpQV+NrNunt/8dTBr0Ci8RSWnsbjrkazfNAeuilKr1U2F3fw8IiqiXz4kQxQ9a27fPVk1yt9hCDMt/KJxrLvsgWiEgL7gboi3zszThFq+5zk466vrePJeOrTpMwt0QOqt7sxyuir9TbVW8KaimNERADqG+XO5QS7+mRa7vlwugIpmq2ENMIrD76T2zyJcBkVW9DJkFokEgxebulOxWAjWRtvIeBevTYid87vVI8aAll4WqSo0buNlG+5YQ5uKAyG+gsfCgIzs6/spNcXyt8CVX9jtvrYc0cdAkgAL9BFj5e+iKrqNhBTypos8ae41AU3m2B7vBlNgsaVZKNVVB1ItuK2ZX8PPEmZniLqXrEUWZFeE4natzR2Bg+Y7LLtjEu4AKySGLIt2GKWhAao6DIpDi4En8xe2GS7w4+IgFdDADLVvHjN5EyjP4ERjI2l1XOuZ91Lk6WwIG3uMULQt2OEKNgxQKNZA4WP/cjv6Gb23EuI+bNIga702w1dVkpu/jpyFONHfEWBcqbbaVKtnmwMqlWmbkbhhYNW52VD2ZxLs3Vo7vmmPu2+W96jkdDj3vFUWACZ/ghK6oq/NP94gD4+xbsFlswgPWVP0Mr7hSwFbhYRnChP2k6vnh7709jiZRdAOM7OZqu6qNwe6k0JxnuubGrPBoGZd4eb1beZiFGi+j+wLEcGiaoVGuYOEY9Obu3MdyspdrSbGwuLJiDFHJ3uPKvzlTvu+TauwzZJbY6Gc9xjP4yTxnu3/O/L14e8l0guR6+zwmgWCe1GPSXZJPCH3YHNhVteV49qOCp0/inmWrDAMyNn6nm9O5OFsl2js8sSIRuXwVjc+66Y0hl90jFk/+aMHuofBop+hFP7NxpKM8gqofxDqWlFsWSe+WPw8hhCB1wKkIMTXGok0fToIMJTqy1JK6y3mlNG4vGjmRALEI+fbl/PNxdj5xZzVexiaS1IEPmg/AUf/zdyOwt5Qf2IRnhH/VcZ9utr5Fs53xdhCFJ/2RicQBgzfJamgPj3CS/GpkN4zSKe53xt17qOtu/CGPmMY51I0GmsUTnbzb4RWrhrnIwvskJ9r7/SMcCp0TGNjacUfVZDVofvcVN6p+da4JaHoJn1B5H19/QzYy9qffzx3W4FFWNaz+Br8I+G8BioPdDC6kfqEc4zPKB1NcX/Fb2nAkxKazhAvgzi6to1/UploppIOL+ekOeYxMPMUjBnFw0i5sdcJjVxIEn28jBbTHDB27EA1EQoDgDT7PFDSvK73QNVDFr1lyYOJvNHkcqQLPRWzoBoTqRDBh+Ex2+GJ/5iabLAII3e8xxJ08YQIrOOFIEtrbI8ZyLiAA+g5PWMcASp4PvmRt2I50b+o8KMnlUh+z/snFr4Vsllem6zENY/4SqC4vO4yAbcWcc+zsBQ5nPN17e1oROv0XT+yStS1C2Qpds+jf3pI0wVQdtAvOEVfgCOLxtLJMbF86kEP2O9Vb1GGKT8oklMdJ3BC1ACLc4sheECeNMNNKeP0MNOKI3teRevA99O0A6eBEQCa30Oen0EsCG/8OscMk59nMRSaZE0KetuDlStKHlpnf1f9WeAExaQBc2L1Ff0DdDefg9ddy2NShJ2gnOzBwfw/HxpSYYSxA/S1lwqQ7DEdxM7vUplCIpUwZtmqLCEnSpemJMEXPpbZHjYI3y5WaOPYP+WHsw9Rk6AVhpP8NI5OnhRjr6Jh+RWEz4p69TwNB8I4CZVMVoxVu+TTAXJMvnmoVdUVxM/7s+yc9C3qoui9M+RFPmGuTStl5DxTfA3XoxR2gCAFKWNXPUyPhAfrr+EhQAN2VB3X1KnP1G8T8ldZUnN0a6Vdsj8bWsIkikqBoSTKeCA7KiTfTF3iJ5n8AF/TsPB66I8UDWhU+QjvL0tHuIvUC6V8Tk5AS/9WOWz3klhRkY6JJrZSIvxlyBTVYuzbE6p55HQbBzSbon4hy0aiy1xcG5ihqY+Uz3GA2TPs39M3cC9V7xUdRBPBcO0ZgV2aISxGRbdLMIm2OJrNSmtYCHmFfb+ovQn7zMtl/VyOZg4zq9BWNwQUpYTpOF/kmABVe3jhxX7UcOufHZu1Vc0i6LghfTD51HoUl9pS8ZR2MdEJWeKPZYcHURab6ENvjaF8caQhyIszQAqp4wP9sKU0oRFUMBKtjhDRHFxuItAhag4qru5MKhRjknG29fHg1Sqes/Ml6NCF+IWS7X4utPNesO8Wv+34RRcJGA0K41fuU+r2s8aH5uR1033W9EV78Jri6aRIQSgknymcloqIMO2f6tdL18pFjaDdBHwfy5NKcJzO/sZ4AbQ61f5V4GtDnVAVa36r04Y31Mxg922gxNsLr2VA8rfBu+b8wZdsF2t6O+QCq6DB6hzFm1rjndTLgwuNPMyEPb12JzSbx7UCmHL0TyhcdW+/PFEKIoERo0nHRM+WSPxu17x9y+5YZUe3Cl0kIgyIktwuBabXZ/86Bc617Pjv6N4QiXeCsreS/c/KEUuK2a9OkgQf91Bw5HBg0AYL4U2ozgurzgXa5N7sBFzSEg9ugL/9u9HUnyEuZYA+SZdmkwHW7o8RdP/PfD82cii9GiNjhHJi0cogBikdZRxWTdrspamow+wAAAMidYKSptPKT9wV/hXsqGEyI+2XLDZpxKIq5b4OHsprBLHH8ZgfxS2IWZacpCpqKbPjHfB454WcTkd7ZuIrVbGn/b2V29gNwkG2EOKR98AVCqLR6znAgUl5E+QQ0x7bSZDQhopiziISuWivRXDCyheFZqij19L96NhOiPOMdfdgT04EAnIN4lvkYlvMaI1WkrPkmk/abL9xkGVMU3LJmVhHVf331C6bT5J8oFfMB2YebBWnEJE+Nr6NnqCg6V8bej+KdjqSbdlV+tfLiYZsdXP+9apV5yZ1rvbLTpZv9DNYmnwvs8owdAA8qquCzatAspCKH80y4wUzAxf1nvWDxAuHh8yJW9sQchSfV81LJJRwoACTnblLlauhiXFjo0Gq9SyXvEpYJbq6BA8he5zGekJBDo4yLU8Psri2YXx2bmORp7VQQvQ9x7VPL29L9HDwNUMhiE+bQxcuWn5j6v4LaZbMuGGOUbF9JMUV64QaspxEG1k6t5WMItAAHXaTQrooKGuUdHCW69bVQmwECan4yXgyxdKzzAZu2OxhjX7lPTbn31HSKqxSxLFLkyp0v1c6MVkNIYsxh1RUVhsa7z6/UGH0FPUZj+qdOX/g6ptLl6VgseSceCznPop+I3eLjKlSLhSb3Vg9vbNubCm0WyzXJVgq/GSvTwAAAABFWElG2AAAAElJKgAIAAAABgASAQMAAQAAAAEAAAAaAQUAAQAAAFYAAAAbAQUAAQAAAF4AAAAoAQMAAQAAAAIAAAAxAQIAEQAAAGYAAABphwQAAQAAAHgAAAAAAAAAYAAAAAEAAABgAAAAAQAAAHBhaW50Lm5ldCA1LjAuMTMAAAUAAJAHAAQAAAAwMjMwAaADAAEAAAABAAAAAqAEAAEAAADTAQAAA6AEAAEAAAB5AQAABaAEAAEAAAC6AAAAAAAAAAIAAQACAAQAAABSOTgAAgAHAAQAAAAwMTAwAAAAAA==;" vertex="1" parent="1">
          <mxGeometry x="-84" y="193" width="79.28" height="64" as="geometry" />
        </mxCell>
        <mxCell id="YrKTldFXBiDf7sf4YSAn-16" value="" style="shape=image;verticalLabelPosition=bottom;labelBackgroundColor=default;verticalAlign=top;aspect=fixed;imageAspect=0;image=data:image/png,iVBORw0KGgoAAAANSUhEUgAAAfQAAAH0CAYAAADL1t+KAAAABGdBTUEAALGPC/xhBQAAACBjSFJNAAB6JgAAgIQAAPoAAACA6AAAdTAAAOpgAAA6mAAAF3CculE8AAAABmJLR0QA/wD/AP+gvaeTAAAACXBIWXMAABYlAAAWJQFJUiTwAAAAB3RJTUUH5wgOExAOpCCfFwAAeYJJREFUeNrt3Xd8VFXawPHfuTPpvZNA6F26NAUEK1iwrm1V7GXVXfva66prb2vdtayA2MsrYm8gRVB67yGQhBLSe2buef+YBNGlJLl3cmcmz/fzmXf3ZZNnzp07mWdOew4IIYQQQgghhBBCCCGEEEIIIYQQQgghhBBCCCGEEEIIIYQQQgghhBBCCCGEEEIIIYQQQgghhBBCCCGEEEIIIYQQQgghhBBCCCGEEEIIIYQQQgghhBBCCCGEEEIIIYQQQgghhBBCCCGEEEIIIYQQQgghhBBCCCGEEEIIIYQQQgghhBBCCCGEEEIIIYQQQgghhBBCCCGEEEIIIYQQQgghhBBCCCGEEEIIIYQQQgghhBBCCCGEEEIIIYQQQgghhBBCCCGEEEIIIYQQQgghhBBCCCGEEEIIIYQQQgghhBBCCCGEEEIIIYQQQgghhD2U0w0Qwclr6sb/qhQopTA0uEwwlIkBGPz274rfHsZeYQzA1YKn14ChDvy7Svv+9wO9xxvbuf//XR/gORSogzxHQxsO9ByKg7czGJiA9yA/41W+n9sfrcGLPsBPKLwcJIZt7fDFau59+ePrYDbEoeE5tdYN/6YwUZgGmBq8e/4dcBnB/nYQTpB3TRtnmhqtQRm4tCYSiAJigDggFogHEhr+/7iG/y0WiG742SggEghveIQB7oaH6w//ScP/3uhgCfVAGhPhgRwoUWoOnkitPkfjNVp9jmDQlES6J2FZiOFtQozG51EWYhysHU393cYvICbg2es/Gx/1DY9aoA6obnhUAZUNjwqgbK9H+V6PGqBaQb0GLV8E2ja5+22A6etNK60IR5MApAKZQPu9Hu0a/j0ZX+JuTNjh+BJOKPQihQhWe38RqMGX8CuAEqAI2AHkA3nANqAA2KmgGKjUYBqAkoQf0uTuhhhTazBRWhGLL0l3BXo1PLrhS95p+HreEbS8hyyECDwaX9KvxJfo84EcYD2wpuE/tykoRuHRHnCFSRoIFXIng1il1kRp0L6knAx0BwYCg4F+QCd8ve5Ip9sqhHCcByjFl+TXAkuARcBqBQWmotbwgCEJPmjJnQsyXq0xPKBdRGtfj3sYMBoYAnTG1/OW+yqEaIoafMPzK4B5wFxgFZrdSmEaMkQfVORuBQFt+taJm5o4fD3vIxse/fENn8uwuRDCDhXABmA28B2wQCm2oyW5BwO5QwFKa41pglJEaOgLHAccj29IPdHp9gkhQl4tsBH4HpgBLPDWU2S4wO2W1BGI5K4EGFM3rEjXtAOOAs4ARuHricv9EkI4oQpYBvwfMB1YB9TLNrnAIncjQDRsLXNr32r0PwGnA334/b5tIYRwksY35/4V8DaauSgqjYbqUsJZcgccZvrmx8O1ZghwAXAyvq1lcm+EEIGsHJgFTAG+BEqVAkMSu2PklXdIQ488TMMI4DLgJCDF6XYJIUQz1eBbHf8f4AsksTtGXvFW1pDIXRoGAFfhmyOXRC6ECHaNif15NF+jqJTqdK1LXulWYpoapUBrumi4ApgEZDndLiGEsFklvjn2Z9DMAzwul6Sa1iCvsp81nkqmIEHDWcB1+LahyWsvhAhlhcBk4IUKzaY4BbKX3b/k1fWjhuF1Q8NhwG349pKHO90uIYRoJRpYBTwBvA9UylY3/5FX1g+01jQUd0vV8BfgGiDD6XYJIYRDavDtYX9Ye1imXCDD8PaTV9RmDdvQlNYcDtwPjCM0zrsWQgirNgL/VDBNQ7X01u0lr6aNGubLY/FtQ7sFWfQmhBB/VA28DfwD39GuSGK3h7yKNjBNjQko39nj9wFnI3PlQghxIL8Ct6P4Ho0pSd06eQUtatiOpkzNWOAxfMeZCiGEOLjtwEPAa8gQvGXy6lmwV7W3C4AH8JVsFUII0XTVwKv4huB3SZW5lpNXrQW8WqN828vjNNwM3ADEOd0uIYQIUiYwXcHNGjYoZM96S8gr1kymqfHlcjLwDRVNQk5EE0IIO/wMXKsUC7UpW9uaS16tZmjcXw50Bp4CTkVeQyGEsNNq4FpT8b1LS0+9OeSVaiKv1jR0zXsALwLHON0mIYQIUTnA9UrxqdZoWSzXNIbTDQgG2vQlcwX98K3GlGQuhBD+0xl4UWtONxSq8UwMcWDytecgGnvmCvpp33m/I51ukxBCtBH5wN8MxYemlgI0ByM99APQew2za98wuyRzIYRoPVnAc6bmtGJzz1ZhsR/ydWc/arQm3Pfe6aLh38gwuxBCOCUXuNQ0+dbtAiX71PdJXpX9aJizyQBeAk5zuj1CCNHGrQUuBOZL8Zl9kyH3fWgo5xqPb5/5qU63RwghBL2AfynorXXDlKj4HUnof7CnnKvmFnzfBuVroBBCBIZh2lcDJNOUpP4/JKHvxWtqtALtS+TXA26n2ySEEOJ3JgD3AjGyRu73JKE32LN6UnMUviNQY51ukxBCiP+hgIuBqzUYskf9NzKc3KDhTdENeAcY6nR7hBBCHNBufIl9ulbglkVy0kOHPck8Dl/PXJK5EEIEvhTgQaC3kk46IAkdU2sMhQIuB852uj1CCCGabAC++fQ4GXpv4wlda43WYGrGADchx6AKIUSwOR241FB7RlvbrDY96dBw89PxzZsf6XR7hBBCtMg24E/AfK+C8DY6n95me+imqTEUBnA1MM7p9gghhGixDsBdQKKrDXfS22RC92iNBkzNKOAq2vhIhRBChIAJwEW04aH3NpnQDd9xqInAbfjqtQshhAhubuBvaAY43RCntLmEbmqN6TsV9VzgWKfbI4QQwjZdgBuBiLbYS29zCV1rUIpuwLXIqnYhhAg1pwPjoe3Vem9TCd2rNcq3EO4KoK/T7RFCCGG7OOA6ILmtddLbTEKv1r5xdq05FLjA6fYIIYTwmzH4trHh9badrN5mEnq4BhRufBXhMp1ujxBCCL8JwzcSm9mW9jC1iYS+Zx5FcxhwmtPtEUII4XeDgbNgr9M0Q1wbSeigFOHAJUCq0+0RQgjhdwZwEZDVNtJ5G0jojUVktGYIcKLT7RFCCNFq+tMwKtsW5tJDPqEbvt65AVwIpDndHiGEEK3GBUwC0trCXHrIJ/SG3vkhwElOt0UIIUSrG0TDvvRQLzYT0gndbDgeFTgDX/F+IYQQbUs48GcgxumG+FtIJ/SGxXBZyMp2IYRoy0YBI5xuhL+FdEJvcAxSFU4IIdqyeOB0NCqUh91DNqE33LRI4FR8p/AIIYRou8aj6OJ0I/wpZBN6gz74hlqEEEK0bV2BcQDe+tDspYdkQvf8dsLOcUC60+0RQgjhOAM4GYjE5XRT/HeBIUf58nk8cILTbRFCCBEwhgM9nG6Ev4RkQm/QDxjgdCOEEEIEjEzgCAAzBCvHhVxCN38bbh8HJDrdHiGEEAFlPJqI0EvnIZjQG/J5DA2LH4QQQoi9DEbRORRLwYZcQm/QDRluF0II8b8y8c2lh5xQTehDkYNYhBBC/C8XMEaHYJGZkEroDTdH4dt7HlLXJoQQwjZDlSLF6UbYLRSTXgowxOlGCCGECFhdge5ON8JuoZjQuwGdnW6EEEKIgJUADAbwhtD2tZBJ6Pq37WoDke1qQgghDmyoMlGhtNo9ZBK6qaHed2MGO90WIYQQAa+fNkhwuhF2CpmEDhCmicNXIU4IIYQ4kE5AB6cbYaeQSuhAO2T+XAghxMElE2IL40ItoXeC0NuKIIQQwnZhQF8AM0T2o4dEQq/57Wb0BKKcbo8QQoig0BswQiOdh0hCdwOGb0FcL6fbIoQQImh0w3f2R0gIiYQO4NWE47s5QgghRFNkEULTtCGR0JXvEU+IrVgUQgjhV8n4FlOHhJBI6A1SgHSnGyGEECJoxAAdnW6EXUIpobfD10sXQgghmsIFZENorHQPpYSeBUQ63QghhBBBJVsr0MGfz4M/oe/1rao9vm9bQgghRFO1NzQuFQI13YM+oe85Ad2X0IUQQojmSNeaKOmhBw6DEFqpKIQQotWkoogOhVPXQiOhayIIob2EQgghWk08IbKgOjQSum8xXLLTjRBCCBF0YiA0jlENlYQeRYjcECGEEK0qCkh0uhF2CJWEHgdEO90IIYQQQccNJDndCDuESkKPRU5ZE0II0XyS0ANMHFJURgghRMskAJhBvnctlBK6FJURQgjREgkoME2nm2FNKCV0t9ONEEIIEZTigaDfih5KCT1UrkUIIUTrilMmQZ/RgzoJ6t/mO2KcbosQQoigFYPCCPJ8HtwJHRpquUtCF0II0XLRJriDfAo9uOedTb1nhET2oAshhGipSKWDf2F1cPfQNTQceScJXQghREtFEuQdXAj2hK6g3vffZA+6EEKIlopA4ZJFcU5SEOYbdZeELoQQoqUiCPZ8GPQXoPcsiotwuilCCCGCVhghUJwsqOcMGubPDe27GUL8D6UOvLVUA0Fe7VHsRe63aCE3QZ4PGy8iaDX84bo0hDvdFhE4Gj/U6z0edu8uYseOHRQW7qK0tAytNRER4aSmpJKekU5GRjuio6NQ+D7o5bM++DTeb4/HS1FxMdsLCthVWEhpaeme+52SkkpaWhoZGRnExsSglCR38TsugjwfEuwXYPr+GFWwX4ewh6HAa5rk5OQyc+aP/PD99yxZsoQdO3ZQUVFBXV2d7+cMg6ioKJKTk+nRoydjxozhqKOPZtDAgURHR0liDxKG8h2msXVrHj/9NIvvvvuOxYsWkZ+fv8/7nZiYSLdu3Rg1ajRHH3MMQ4YMIS42Ru63gBBJ6EG9ps/jy+hRCj4FjnG6PcIZSvmqBq5fv57Jb07mww8/YOPGjXg8nibHSElJYdy4cVx8yaUcOW4c0dFRjV8YRYBRCtCwafNm3nprKu+/9x5r166lvr6+yTESExMZPXo0l1xyKccedyyxMTFyv9u2bWiOBDa4XMGbFoO35YDXq8FXsu8zYJzT7RGtz1BQUlLK5CmTeeH551m/fv3eJYGbLT4+npNPPoWbbr6ZgQP6A0p6bwHEUFBWVs60adN4/vl/sXr1akwLR2TFxsZywokn8vdb/s7gIYNRcr/bqnzgKGCtK4gLwAZvy9mT0GNRfA6Mcbo9onUZClatWs29997Dp59+umeI1Q7du3fn9jvu4M/nnktEZKTMtQYAQ8HqNWt44IEH+Pijj6itrbUtdpcuXbj9jjs4//zziZT73RbtQHMUilWS0B3i8SX0eKX4Ajjc6faI1qMU/Pjjj9x4440sWbzYL88RExPDtX/9K7feehtJiQkyJOsg3/2eyU033sBiP97va669lttvu51Eud9tzU40RwMrgnnIPaj3oSv129Y1p9siWo9S8PnnX3DZpZf6LZkDVFZW8uQTT/D3W25m565dwX8UU9DSfPrpdC695BK/JXPw3e+nn3qKW2+9ld1FRXK/2xYDhRHcXdwgX9XX8NobOsivQzSdoeDrb77hr9dew+bNm/3+fB6Ph9dffx2Px8MTTzxJSkqy9NxakVIwffpn/PXaa9i6davfn6++vp7XXnsVw2XwyCOPEB8fL8PvbYOhQqBjGPQXINoOQ8Gvvy7khuuvb5Vk3sg0TaZMmcL9D9xPZWVV46iQ8DNDwayZs7jh+utbJZk38nq9vPbqqzz26GPU1tbJ/W47gv5Oh0JCVyFyHeIADAVbt23j73//O6tWrWr15/d6vfzn3//mxRdfxOv1Ov1yhDxDwZo1a7n55pvYtGlTqz9/fX09zz33LFOnTpFN6m2DoX1FyoJaUCdCrUArFCFQg1fsn1JQU1PLo48+yo8//uBYO2pqanjssUf54osvZH7Vj5SC4pIS7rnnbn799VfH2lFRUcGDDz7Iz/N/lvsd+hTSQw8YQX8jxP4p4ONPPmbym29a2mNuh8LCQu6/7z42bNwoH/J+Ypqa//z733zyySdON4UtOTk89OBD7C4qkqF3EfBCIaHLn1kIMxRs3LiJRx95hPLycqebA8DChQt58oknqKmplQ95mxkK5syZwzPPPtusym/+9NVXX/LGG2/I0LsIeMGd0DWgpZZ7KPN4vLz8ysssXbrU6ab8zrRp0/jyqy/l26SNlIKS0jKeeOJxCvLznW7OHh6Ph5defJHly5fLqEzoCok7G9wJ3UcWxYUoQ8GCX35h6pQpTjflf5SVlfH0U0+xY8dO6aXbRAHvv/ceX3/1ldNN+R+bNm3i5Zdfpq6+6ecDiKBiEAIdw1BIhO4QuQ6xF6WgpraWf7/yCtu3b3e6Ofs0Z85c3n777dD4au8wQ8GWLbm8+NKLtpZ0tdMHH7zPfFkgF6pkUVyAcCGr3EOOAhbMX8Bnn013uin75fV6eO21V9mckyMf8hZpfNMYS5cscbop+7Vr1y7eeP0NausCY25fiD+ShC4CUl29h8mTJ7N7927bYiYmJpKdnY3hsu/tsnLlSt59510nXqKQYSjfkPaUKZNt3cWQkJBAx44dcdl4v2fM+IzFixbJFzgRkEIhocuQe4gxFCxfvozPP59hW8xevXrxxn//y1dff8Nll11GeHi4LXG11kybNo0tW3LlQ96CDz74gDVr1tgWr3efPrz2+ht8/c03XHbZ5YSFhdkSd+fOnbz9ztt4LRzZKoS/hEIidBMCixnEbzTwf598QkFBgS3xOnXqzAsvvsSpp5xCn969ePzxx7n6mmtwu+1526xatZLPPvvMwVcseBkK8vILePedd2zrnffu3Zv//Ps/nHH6afTq2ZNHH32Uiy6+GGXT6sUZM2awadMm+QInAk5wJ3TftjUZcg8hhoL8/Hw+nW7P3HlMTAz33HMPRx11JKYGU0N8XBx33303p59+hi3P4fV6effdd6X4SAt9/fVXrFixwpZYaWlpPPrY44wePWrP/U5IiOfee+5l7NhxtjzH5k2b+PLLLx18xYTYt+BO6L51iTLkHmLmzJnDmtWrbYl15llncc655/zu30wNyUlJ3HvfvRxyyCG2PM/Chb8ye/bs4F8m24qUgvKKCj54/31bisi4XC7+9rfrOPGEE353Ip6poX37LO6++27S0tMtP49pmkz/dDpl5RXyBU4ElKBOhA37DKSHHkLq6j1Mnz7dlq1LnTp15rrrriM6Kup/jsA0NfTt04cbbryRyMhIy89VVVXFxx99JPuUm0EBixcvZu7cebbEGzPmCC6/4nJcrv/9WDM1HHHEEZx/3vm2PNevC39l2bJl8gVOBJSgTui+EXdJ6KHCUJC7ZQtz58yxJd7555/HgP4D9nt+uQb+dMafOOaYY215vpkzZ7Jpk9R4byqt4fPPP6ekpNhyrLi4OK6//noy0tP3e7/dbheXXHoJXbt2tfx8xUVFfPfdt639kglxQEGd0Bu66CFREED4zPt5ni1nX3fp0oU/n3cexgGyq26YX/3LX/5CfHy85efMzc3l+++dOw0umCgFO3bs4Ksv7akKN37CBI459pgDlls3NfTt25c/nXmmLc/5w/c/UFJaKsPuImAEd0L3ddFlDj1E1Hu8fPftt7bMp558yin06tVrv721RhoYO26sLb100zT55uuvqK6ukQ/5g1DAwkULWbdureVY8fHxXHbpZcRER3OwhfKGUpx99tlkZmZZft7ly5exevUa6U2IgBEKiVB66CHAULBj+3YWLFhgOVZSUhKnn3Y6LuPgb2+tISY6mvPPP5/o6GjLz73gl1/YsHGDvCEPwtTwzdffUFVVZTnWEUccweGjRjXpMDRTwyGHHMKRRx1p+XmLioqYN29uK7xaQjRNKCR0ESKWr1jBli1bLMcZOXIkg4cMafJplxoYO3Yshx56qOXn3l5QwM8//+zfFyrIKeU7V372nNmWY4WHh3P2OecSFxtz0N55o4jwcE4//XRbFkPO/uknamrr/P2SCdEkktBFwFiwYL7lHptSihNOOLFZH/BaQ3JyEqeeeprl4iOmaTLzxx9ltfsBKGDVypWsX7fOcqw+ffpw5Lhxzf69ww47jJ49e1p+/uXLl7N9+3ZZCCkCgiR04TiloKq6hl9/+cVyrMzMTMaOG9ui3x0/YTwdOnSw3IZff/2VgoIC+ZA/gDlz51BWVmY5zoTjjyerfdZB10rszdTQrl0mRx51lOXnz8/PZ/WqVf58qYRoMknownEK2L59O6ts+GAcOGgQXbt2a/JweyNTQ7du3TnssMMtt2Hr1q2sWrXSPy9WkGv88vbzPOt7z+Pj4xk/fnyL1isYCsaNHUdEhLVh96qqKhYuXOinV0uI5pGELgLCxo0b2bFjh+U448aOIyY6qsnD7XuLjAhnwvETLJ/OVVVVxc/zZB59XxSQt22bLaVe+/cfwMCBg5r95a3R4CFD6NS5k+V2LF22lDo5UlUEAEnoIiCsXrWKyspKSzHi4+MZMXKEpRgjR46kffv2lq9n4cKFVMn2tX1avXq1LQfvjB17BElJiS368mZqyGzXjsGDBllux/p16yguKZF7LRwnCV04zuM1Wbp0ieU42dnZ9OjRo8W/b2ro3LkLg4cMsdyWNWvWsHPnTtm+tg+Llyy2XNo3JiaGseOOtPT6hoeHMXToMMvXs23bNrZs2SL3WjhOErpwlFJQUVHBmrXWC4z079+f1NS0Zi2Q+qOoyAgOt2EevaAgn/Xrra/iDjU1tXUsXrzYcpxOnTrRt29fy3EGDxlCbGycpRglJSVsWL/ettdIiJaShC4cpYCiot0U5OdbjjVo8GDCw6yfcT58xAji4qx9yFdVVbFs2TK7XqaQYDTsP1+7Zo3lWIMHDyYjI8PSlzeAHt27k5mZaSmG1+tlw8YNdr5UQrSIJHThuIL8Anbv3m0pRmRkJP369bfcFg306tWLzp07W461etVqvFYzTojJy8tj+/btluOMHHkYYW5rixc1kJqWRvfu3Sy3Z+OGjXi8pl0vkxAtIgldOG5zTo7lBXFpaWn06NHdclu0hpSUFPr06WM51oYN66msbN0zs5XyPYwmPBp/tjVt2LCe8vJySzHi4uLoP2CA5bZoDVFRkfTpY33oPidnM5WVlbIwTjjK+vikEBZt3LgBr9drKUaHDh1IS0tv8RamvYWHuRk8eAjvvfeepTibN29mx46dxMfF2dKuvSn1+wMMTK2pr/dQW1tLTU0NtbU11NXV46mvR2uNxldFz2UYhIWHEx4eTmRkJJEREYRHROD+wxniGlq0evxgVixfYflet2/f3pYjUMH3GvY95BAMw8A0W97DzsvLo7i4iIR4+++1EE0lCV04ymtqcrfkWo7TuXNnYmNjbUtCAwYOJDIykpqamhbHKCoqIm/bNnrYMKS7dwKv93gpKSmhoKCAjRs3sGHDBrbkbKGgIJ9dhYWUlZZSWVlJfX09Xq8XvdeLYhgGbrebiMhI4uPiSEpKIiOjHR2yO9C1a1d69OhJp04dSU1NIzoqak+PU2ssJ6q6eg8bNlhfPNazZ0/S0qwtftxbt25diY6OpqKiosUxiouLKSzcTedO1ve1C9FSktCFo2pra8m3YUFc5y5dCHO7bPuQ79y5E8nJyZbaVlVVZemwmcYkbpqawt1FrF+/jkWLFvHLgl9YuXIF27Zto6SkxPIWsEaGYRAbG0taWhrdu/dgyJAhDB02jP79+9GhQzZRkRFAy3rvjbsZcm0467537z5ERoTbdq8zMzNJTEy0lNArKyttKYwkhBWS0IVjlILq6moKC3dZjKPo1NG+npEGMjLakZXV3lJCN02TzZs3N/s1UYDXNNm+fQe//PIrP/7wA3PmzmH9unWUlpb+rsdtJ9M0KSsro6ysjI0bN/LVV18SERFBZmYmQ4YMYey4cYwZM4ZevXoRHRXl+50mNkUBxcVF7LC4IE4pRa9evWy7Zg0kJSWTmpbGtm3bWhynrq7O8rUJYZUkdOEYha/XVlJSYilORESELSU8G2ntW3jVvXs3fv3V2oExublb8Ho16iAntTQm8tKyMn795Vc+++wzvv/he9atXWtp2N+q2tpacnJyyMnJ4ZNPPiE9PZ1hw4ZzwokncMwxx9K5cyfcLleTeu27du6itLTUUntiYmJsmz+H3+51+6wslljYH6+1ZufOnba1S4iWkIQuHFVcXGw5ocfExJCenmFru8LD3HTrbn3VfG5uLtU1VcTE7Ps4V0P5htRztuTy5Zdf8MH7H/Drr7/YchKZ3UzTZPv27Uyf/imffz6Dzl26MGHCBP70pzMZOnQosTHRB0zs+QX5lo/HTUlJob0NJ+LtLSIigsysLMtx8vLyZEGccJQkdOGosrIyyz3Q+Ph4khITbW9bt27dUEpZGuLesWMHFRWVxMTE/O7fDQUer5eVq9fw3nvv8uEHH7Bu3TrLK8Bbi9frZeOGDbzw/PO8NXUq48aN47zzL+Doo48mKTFhn4l9y5Yt1NXVWXrezMxM0lJTbU2choKsTOsJvbi4GK/XxDBkN7BwhiR04aii3bstL+pKSEjwrXC3uW3t23cgKirKUq+ypKSE8vJy2mX4ttQZCrxek2WrVjH5zTf54IP3yc3N9du8eGsoKSnhk08+4auvvmLU6NFcesmlTDj+eBIT4n+3Ot6OgjLt27cnOjra9i11aWlplmMUFhZSX19n+UhWIVpKErpwVHV1taX9v+BL6JENi7TslJ6WRnR0jKWEXllZSXFxEdANBWzcuIn//ve/TJkyOegT+R9VV1fz7TffMGf2bMaOG8c111zDUUcdRXRUFF5Ts9OGVeCZmVmEhYfZntBTUlNwuVyWRkhqaqrxeLxERvpnD78QByMJXThqV+Euy8PMcXFxRERE2P8hn5JCUlKipVX4NTU1lBSXUFJaxltvvcWLL77A6lWrQiqR/1F1dTVffvEFc+bM4ZSTT+avf7uOfv36UVhorbwvQIfsDiis74n/o8TERMsJvbi4hKqqKmJjY1ocQwgrJKELR9mxhzo52de7spMG4hPiSU1NZb2Fk7Tq6uqYMWMGzz73LN98/Q319dbmkINJeVkZU6dOZebMmZx//gXk5rZ8Tz749sl36JDtl7bGx8cTGRlpaY6/vr4Or9frly8cQjSFJHThKDt6qvHx8RiGsrWHrjVERERanlv1er289NKL1NfX29e4ILN161Yee+xRy3EiIq3fj/2JiYklPDzcUgy91/8VwgmS0IWjioqKLMeIjIz0S6/I7XaTmJRkOU5bTuaN7Fi9HxEeTkJCvF/aFxYWRlhYmKUYlRUVlrflCWGF7K8QjrJaaAQgy4Y9xPvidhl+6xGK5ouOjiYx0foXrH1JTEwk0eLWx6qqKqqrnSsCJIQkdOEsG7rVERERfmtelB9Wz4uWCW84Jc5uGt9ojNstA5YiuElCF+IA0tPTnW6CaJCQkOCruOd0Q4QIUJLQhTiASCkSEjDCwsKkFy3EAchfhxAHcLBDVQKRy+UiIjKSyIgIlFK43W6UUng8HrTW1NfXU1tbS11dXVDth1eGsed8diHE/5KELsQBJCclExYWFrAr1cPDw8nIyKBLl6706NGDbt270aljJ9IzMhq28xlERETgMgxq63z7pGtqaigq2s22bdvYvHkzG9ZvYMPGDWzNzaWsrCxgk3xiYiLh4f5bLyFEsJOELsQBxMTG4na7AyqhJyQk0Lt3H8aMGcPIkSM5pF8/srKyiImJxtXMg0E0UFdXT1FRERs3bGDhokXM/mkWv/zyC3l5eXg8Hqcvd4/YmBjcbreUVRViPyShi6Dn8QZO0vGXyMhI+vY9hAnHT+C448bTr18/kpISMRrGoBtPNzNbkOzCwsJo1y6DzHYZjB49iiuvvJLc3Fzmzp3LZ9M/Zc6cOezYsSMgeu7+GnI3TdPymQJCOE0SunBURIT1bUh2nOIVqJKTkznyqKM466yzOeKII0hPT8NQylIC35e9T0ULDw+nZ4/u9OzRnbPPPpvVq1fzyScf88nHH7N69WpHe+3++Eqh8NVDsFoTwbf1zd4SxEI0hyR04aj09AzLMSrKK0JuK1NaWhoTJ57MpAsvZPiwYURFRdqexA+k8TkiIyIYMngQgwYN5LLLLufT//s/3nzzTZYsWexIYvfXmriamhpqLJ4rEJ+QQGxsXKu/JkI0koQuHBUWbq3cJkBdfZ3/5lW1btWh5oSEBCZOnMiVV/2FYcOGEhEe3mpJfJ+XT+NRoIrs7A5ce+01nH7GGXzwwfv859//ZtWqVa02VP1bW+zn8XgwLZandbvcth8SJERzyD504Shlw6Torp07bakVvi+lpaWt0hMNCwvj6KOPZsrUt3jl3/9h9KjDCQsLx9SBc9xH4xeLzMx2/PXaa/m///uUv996K+3atWuV5y8rK6O+vt4v8+glJcWW67ArpVAN0yFCOEESunBUclKy5aReUVnpt6RbWub/hJ6dnc1DDz3M2++8y8STTiQqMtKxHnlT+ObbFV27duEf//gH773/PieeeKLlw00Opqy0jHoLx5seSGWF9fdQ4xGsQjhFErpwVHx8vOVhyuKiYqqrq23tuSkFtbV1LFy40G/X7na7OfHEE3nv/fe56aYbSU1NCage+cGYGgzDxZjRo5k8eQoPPfSw3w7KAcjLz2Pt2rV+mUffucv6KE9MTLRfas0L0VSS0IWj4uLjLffsKirKfQndxnYp4ONPPmbaW2/55bqTkpK54447+e+bbzJyxAhQRtDurzY1JCUnceNNNzL1rWmMGjXalqmUPyrIz+fBhx6kcPdu24fdi4uKLa+ViI+Pl33ywlGS0IWjkpISLfdqSkpKbDmGtZGhYN369fzz4X9SXl5u+zV379GDl195hbvuuouUlJSAHl5vKq1BKYMjx41l6ltvMenCC/0yBP/Vl1/y6quv2rpQUQMFBQWW4yQnJ/t92kGIA5GELhyVmJhEfHy8pRjl5eUUFhYe9OeU8iXrgz3q6up45ulnWLZsqe3Xe9hhhzF58hTOPPNPuEKwN2dq6NypI88++yx33HEncXH2buPyeDy88MIL/LLglybdS6UOXozG4/GSn59vuW3tMjMJwtL/IoTItjXhGA3ExcWRkJDA1q1bWxynpqaGvLy83/2bUr/tWdYa6urrqayspLi4mOLiYkqKi/F4PJSUllJaWtKQWDWREZHsLtrNO++8bfv1nnDCiTz19NP06tkjJHrl+2Nq3/Dz7XfcTka7dtxz911N+sLVVNu2buWhhx7k3HP/TFl52Z57Fx4WTmpaGhER4cREx5CUlERycjJx8fFERUbicv3Wf2ncAqcUVFVV2ZLQMzJaZ7W/EPsjCV04KjY2luSUFEsxPB4PeXnbAF+vrN7jpbi4iM2bc1i5ciWrV69i/fr15OflUVhYSFlZGVVVVZimicfj+d1iKKUUhmHYug1OKcVpp5/O008/Tcfs7JBO5o209lWcu+Lyy4iJjuaWW25m586dtsX/7LPP+Pzzz//n3oWFhaGUIjw83PfeSk4mPT2Dzp0707tPb/r2PYRevXqRmZlJTHQ0CigvL7PcNrfbTbsM60WShLBCErpwjNa+GuUZNnwQrlu7lhUrVzF//s/8NGsWS5cuIzd3CyUlJc0qfKK1tn1P+2mnnc5zzz5H+/ZZbSKZN9INq+DPO/88DJfBjTfcwK5du2yK/b/3SWtNXcO2ttraWsrLyykoKGDlypV7fiYyMpKMdu3o1bMnI0aOZNy4cXg8XoqKdltqj13vYyGskIQuHOV2u8jMzLQc54MPPuCzzz5jpx+LzLTE+PETePqZp9tcMm+kAUMZnHvuuVRX13DzTTdSVlbmWHtqamrYkpPDlpwcvv76a55+6imSkpIoLi62FDc2Lo6U1FTHrksIkEVxwmEK6Ny5s+U4xcXFFBQUBFQy79WrFw//859tZph9fzRgGAYXTprEVVddhdHMI179qaKigq1bt1p+36SlpZGSkhw0NQREaAqcvyzRZnXt0jXkCnKkp6fz0EMPM2TwoDadzBv55tTDuOnmmznttNOdbo7t2me1Jz4+welmiDZOErpwXIfsbNu3NzkpKiqKu+++h1NPO1WS+V5MDelpaTz62KMcdtjhTjfHVl26dCYyMjLktiGK4CIJXTiuXUYGaWlpTjfDNmeddTYXX3xxQA0tBwpTQ7euXbnv/vtIT093ujm26d69h+xBF46TTxzhKA0kJiWRnZ3tdFNs0bNnL26+5WZiYqKlt7YfpoajjjqKSy+7zC8lYltbeHg43bt3d7oZQkhCF87S2jdE3adPH6ebYpnb7eaqv1xFv0MOkaH2g3C7XFxxxZUMHDjI6aZYlpKSQpeuXZ1uhhCS0IXzDAX9+/cP+t7asGHDOPecc2WlcxM0loi94sorcLuDe/dsdnY2Hdq3l/suHCcJXTjKUFBdU0teXn5QJ3SXy8X5F1xAu3YZMtTeDKeccgoDBg50uhmWVFdXs23bNr8c6ypEc0hCF44xFOQXbOfvf7+Fxx57tFkV3QJNp86dOe7Y45xuRlAxNWRlZnLC8Sc43RRLli9fzgUXnM+MGZ+jTdP2o12FaCpJ6MIRhoLlK1Zw6SUX8+ILL1BVVeV0kyw54fjj6dS5s8ydt8DEk0+mnQ3VAp20dOlSLrnkYl586UVqqmskqQtHSEIXrU4B3//wA5MuuIAvv/wyqHvmAN26deOSSy8lzO1yuilBx9QweNAgzvvzeUE95QKwc+dObr/tNu659x6Ki0tkG5todZLQRevSmo8++ohLL7mEJUuWON0ay5KSkrj7nnsZNFAqwrVUWJibG264gfETJjjdFMsqKyt55umnuenGG9i+fYckddGqJKGLVqEAbXp5a9pbXPvXa8nJyXG6SZZ17NiRJ554kj//+VynmxLUTA3t22fx3HP/4vTTzyAsLMzpJlni8XiYPHkyf/vbX9m6dZskddFqgvqt5vV1iQ4HvgZinG6P2DcFeE0vb775JrfdeiuFhYWOtcXtdu85Jzs1NZW4+Hgy0jOIjY3B4/Wyc+dOioqKKNq9m+LiYkpLS6mtrUU3LF13u91kZGRw3HHHceVVf2HY0ENRypAtSzYwFOwuKubtt6cxefJkVq1cSVVV1Z7X3uVyERMbS3JSEsnJySQmJdEuI4PY2Fi8DfeupLSUot1F7N69m9LSEmpqavb8fmtTSnHSxIk899y/6Nypo4zgBLZK4DhgriuIv4EFb8uRhB40tMmUKVO5+eabWj2Zu91uMjMz6dO3L4MHD2bQwEF07tKFjIwMEhISiIiIIDw8HLfbhda+c7Rra2uprKykqKiI3Nxc8vLyqKurwzAUKckp9D3kEHr06EFkRLh8SNtMKUD75qOXr1hOzuYcamtrQSmSkhLp1KkzmZmZxMfFERkVRURExJ57V1dXR11d3Z57t23bNtasWc3ChQtZvmwZGzdupLy8vNWv6eRTTuGF51+gQ4f28n4JXJLQnSYJPfApBR9+8CF//eu1bN++vVWe0zAMOnTowJgxR3DMsccyYsQIOnbsSHRU1O9WHzd+tv6xA6fUwf8w5IPZvw52Dw507+D3v1vv8VJUVMTKlSv48ccf+fabb1i2bBmVlZWtdC2Ks88+h2efe5b0tDR57wQmSehOk4Qe2AwFX3/9DZdffhm5ubl+f76IiAgGDxnCWWeexfgJE+jevRvhDfOxGqTgSxvW+AVBa9hdVMT8+fP58IMP+OLLL9heUOD35zcMg8suu5zHHn+M+Ph4eS8GHknoTpOEHrgMBYsWLebCCyexYsUKvz5XREQEhx12OJdccgnjJ0wgPS0VkF602LfG5F5XV8/yFSuYOmUK77//Hnl5eX593rCwMG697TbuuusuwsPDJakHFknoTpOEHpgMBVtyc7n44ov54fvv/fc8hsGgQYO4+uprOPW000hJTpKeuGgWQ4HH42XJ0qW8/NKLfPjhh5SUlPjt+eLi4njyyae49LJLCfKP31AjCd1pktADj1JQUVHBDddfz2uvvea350lPT+fSyy7jyiuvpFPHjpLIhSWGgpraWr799jsef+xR5syZg9fr9ctzdejQgTffnMxRRx0po0iBIyQSuuxDF7YyTc0rL7/ClClT/BLfMAzGHHEEb017mwfuf4BOHX3bgSSZCytMDRHhEZx04gm88+673HrrbaSkpPjlubZt28btt9/Gxo2bZI+6sJUkdGEbQ8F3333Lk08+QV1dne3xY2JiuPavf+Xtt9/hmKOPwnC5pIcjbKPxJfZ27dpx3/338fob/2XAgAF+ea4FCxbw4EMPUlFRKXXfhW0koQtbGApyc7dy/333+WV7WlZWFk8+9RSP/PMR2mdlSiIXfqM1uFxuTp54EtPefptTTjkVw7D/o/Kdt9/220iWaJskoQvLlILaunqeeeYZ5s6da3v8Pn368Oqrr3H55ZcTGRUpyVy0ClPDIX378u9//5srr7yK8PBwW+PX1NTwxBOPs2jRIhl6F7aQhC4sU8CXX37BG2+8bnvsoUOH8vrrb3D88RMAJXPlolWZGtLT03j00Ue55e9/Jzo62tb4mzZt4pF//pPSsnIZeheWSUIXlhgK8vILeOzRx2zf7nPY4Yfz6quvMXLkCOmVC8eYGmLjYrnzjju54867iImxd0PN9OnTee/dd4J7y5EICJLQhSWm1rz+2mvMm2fvUPvw4cN56aWXGThwgCRz4TitITIqkptuvJFbb7uNyMgo22LX1tby7LPPsn7DBhl6F5ZIQhctZihYvHgxr776H1tPtOrXrx//ev55Bg7oL8lcBAytISIygptuvInrrrvO1mNeV65cycsvv0y9xz9730XbIAldtIhSUFNbx0svvWRrnfaOHTvy1NPPMHzYMEnmIuBoDVHRUdx+++1MmjQJZePE97S33mLBgvnSSxctJgldtIgCZs/+iY8/+si2mPEJCTzwwD845uijJZmLgKU1JCTEc//9D3DMscfaFnf79u28/NLLVNfUyAI50SKS0EWzKQWVVdW88sorFBUV2RLT5XLx12v/yrl/PjfICxKLtsDU0L59Fo888gi9e/e2Le5nn03np59+kj8B0SKS0EWzKeCnWbP45uuvbYt54okncv0N1xMeFiZb00RQMDUMGTyYe++9j4SEBFtilpSU8Nqrr1FVXS29dNFsktBFsygF1TW1vPnmm5SWltoSs2vXbtx9z72kpqTIULsIKho47fTTueSSS2ybT//mm6/5+eefpZcumk0SumgWBfyyYAHffGNP7zwiIoKbbrqJQw8dIslcBB2tISI8jOtvuIERI0bYErO4uJipU6ZQV1fv9OWJICMJXTSLx2vy3nvvsXv3blvinXjiiZx3/nlOX5YQLWZq6Jidza233kZ8vD1D71999RUrVq6QFe+iWSShiyYzFKxfv54ZM2bYEq9du3bccOONJMTHy7y5CGoamDBhAmeeeaYt8fLz8/n4o4+RPwvRHJLQRbN8PmMGW7bk2BLr/AsuYOTIw2SoXQQ9rSEyMoJrrr2GTp062RJz+vRPycvLk166aDJJ6KJJlILiklI+/fRTW6rC9erVi8suvQy3S96CIjSYGgYOHMgFkybZEm/16tX89NNPTl+WCCLyaSqaRAGLFi1kyZLF1mMpxQWTJtGzV0/pnYuQYijFpEmT6GXD3vS6ujqmfzqd2ro6py9LBAlJ6KJJNPDll19SVlZmOVavXr04+6yzZVuOCDmmhu7du3PuuefaEm/27J/YtGmzDLuLJpGELg5KKdi1q5Aff/jBlnh/OvNMunXvJr1zEZIUcNZZZ9GlSxfLsfLz85k9W4bdRdNIQhcHpYBly5ayZs0ay7Hat+/An874k/TORcgyNfTs2ZOJJ59sOZbX6+Xbb7+lVvakiyaQhC6a5KdZP1FRUWE5zjHHHEOfvn2ldy5CmsswOOOMM0hKSrIca+Gvv7Jt2zYZdhcHJQldHJBSUFZWzk8/zbIcKyoqitNPP53wMLfTlyWEX2lgyOAhjBw50nKsrVu3smjRIqcvSQQBSejigBSQuzXXluH2Qw45hBEjR0ixDBHytIbY2BhOPOkkDMPax2xdXR3z5/8sfzfioCShi4NasWIFu3btshzn2GOPIz09XarCiTbjyCOPon2HDpbjLFq0iIryCjmBTRyQJHRxQBr49Zdf8Xg8luLExMQy7sgjZTGcaDM00KVLFw499FDLsdavW8e2vDz5+xEHJAld7JdSUFVVxbLlyyzH6tGjOwMGDJBhQ9FmaA1RkREceeSRlmPt2rWL9evWOX1JIsBJQhf7pfDtP9+8aZPlWMNHjCAtLU2G20WbM3LESFJSUizFqK2tZeXKlU5fighwktDFAW3dmsvOnTstxTAMg+HDh+OSfTeijdFA127d6NKlq+VYq1evot7jdfqSRACThC4OaMOGDZb3nyclJdG//wCnL0WIVqc1JCYmMmCA9ff/hg0bqKyUhXFi/yShiwPatHETpmlaitGxY0c6d+4s8+eiTXK7DIYMGWI5TkFBAbt3F8nCOLFfktDFfnm8Jrm5WyzH6dGjB4mJiTJ/Ltqs3n36EBMTYylGSUmJLdtHReiShC72q76+noKC7ZbjdOnaVarDiTatQ/v2JCQkWIpRWVlJoSR0cQChkNC9gLUxYfE/fFvWKikq2m0pjmEY9Ojew+nLCWlK+R6GhYfMy/qPBlJSU8jKyrIUx+PxsGPnDqcvRwSw4O42+T6ETLQkdLspoKKiklKL559HRkbSsVMnpy8nZCjF7+ZQvaZJVVUNFRUVlJaWUFxcTFFRMV6Ph6LiImpra/F6vaBBGQZul4uExASio2OIjIggLT2d+Lg4EhITiY6OJjw8bE98DTJNYgNfGdg42rdvz6+//mohjmbXTumhi/0L7oQu/KqkpISy0lJLMaKiokhPT3P6Un5nf7vnAjWBNSZxDVRWVlFQUMDGjRtYtnQZa9asIXdrLtsLCiguKaG6qorq6mq01tTX1+9zQaPb7cblcuF2u4mJiSEmJob09HSy2renW9du9O/fn759+5LdsSMpKcm4XS7f66MJuIWNiv2PLgTS/YyICCejXTvLcQq2FwTcPRCBQxK62C+v1+vr3VmQkJBAQkKi05eyJynW1XvIy8tj06aN7Nq5C1ObhIdH0L59e7p27UpaaiqGoRw/3rWxvaap2b59B0uXLWX27NnM/3k+69atY9eundTU1KBbkLE8Hg8ej4fa2loqKysB2Lx5857/3eVykZCQQHZ2RwYOGsiY0WMYPmI43bv3IDoqEiBgXp+q6hpyc7eQszmH4pJitNZERUXTqVMnunbtsmfe2unEroCszEzLcTz1ci662D9J6GK/KisrqaursxQjOjqayMhIR3sVhoLyikpmzpzJB++/z9y5c8jLy6O2thYApRQxMTF069aNo48+hrPOPptBgwbicrlaPREYypd8du8uYv78+Xz55Rf8NGsW69ato7q6ulXa4PV6KSoqoqioiKVLlzB1yhTS09MZOnQYxx53HEcffTQ9enQnPCzMkV6woaCwcDefzZjBxx9/xKKFCyksLKS+IdkZhkFCQgJ9DzmEE084kdNOP51u3bqilHI0scfHW1sUB1BWVobXa1o+wU2IgOPVGq/Ww7ymLvGaWsvDvofWWn8243MdFhamaRi9bMnj8MNH6eKSUm1qZ67DNE294Jdf9BlnnKFjY2Ob1Oas9u31ffffr3fuKtS6ldqttdb19R69atVq/c9/PqIPO+wwHR0dY+m198fDMAydnd1RT5o0SU+f/pkuKi7RWutWub+mqbXH69Xff/+DPvroY3R4eHiT2turVy/9zLPP6dLSsla7n/u6v2/897/aMAxLr/8JJ5yoa2rrHP98CMFHhdfUh3udHnqySHroYr+01pZ71jEx0YSHhzt1BXz8ySf8/ZZb2LhxY5N/Kz8vj3888ADLly3nySefpFOnjn4bYjYU1Hs8LFyylClTJvPp//0fW7dutVzMx19M02Tr1lwmT57Mhx9+yPARI5g06UJOPPFE0lJT/Npj95pe3pr6FnfccTv5+flNbu/atWv5+y03s2zpUh5++GEyMtIdmTKIj4vHMAxL91brwHxfiMAQ3And90fpwbd1TQQkZ/ZDGQq+/PJrrvvb39i2bVuzf9/r9fLhhx+gteall14iLd3eg2WU8iWbJctW8Nqrr/LBB++zfbv1Pf+tqbKykh++/545s2czfMQIrrj8CiaefDKJCfG2J0yl4P333+fmm2+isLCw2b9fV1fHG2+8DsBTTz1FfEJ86w+/K9kfKPwrqCdilO8R3GMkwnaGgoWLFnHjjTe2KJnv7ZNPPubpp5+2fB58I9XQvm3b8vjHP/7BKSdP5Pnn/xV0yXxvdXV1zP7pJ6644nL+fO45fP3NN3jq67HrLB5DwZLFS7jn7rtblMwbaa2ZMmUyjz3+GPV1srhMhJ6gTujC/6x+JtfW1tiWDJvUXgWVVdU8/thjrF69ynI80zR57bXXmDdvnuUEZSioravlgw8/5IzTT+MfDzxAbm5uq702/lZTU8MXX3zBueecwy1/v4VNm3Msv2ZKQU1tLc8++ywbNmyw3Mb6+npeevFFZs6aadsXjia/PtXVaMtTKdLDF/snCV3sV3R0NGFhYZZilJSUtNrqbPB93H3zzdfMmDHDtpi7du1k6tSplo6uNBRsyd3KLTffwqWXXMIvv/wSsPPkVhUVFfGv557jzD+dwcef/B8eT32LR5oVsHjxEmbM+My29hUXF/PC889TXlHZqiPghYWFlreBxsXFygp3sV/yzhD7lZCQQGRkpKUY1dU11NXVtUq/Qinf802ePNnyka9/NGvmLPLz8prdq1MK0Cbfff8D55x9Ni+88DxlFqvvBQOtNYsWLeKSiy/i/vvvZ/fuohb3iL//7jtLQ+37jPn998ybO7dV+7vlFeWWYySnpOBqKPQjxB9JQhf7ZRiG5d5AaWkp5eXWP8iaQgFr161j7pw5tsfeujWX1WvWNK89Cmpra/n3f15l0qQL+PnneS0qBNOi10IpIiIiiIyMJDIykqioqD3/3e1uvbWwJSUlPPboo1x++WWsWbuu2Um9uqaW+fN/tr1d5eXlfP75jFZd7b5jh/U67G6XS9bVif0K6lXu+rf/kIVxfhAfH0dcXJyl3lF1dRW7d1s74KU5Fi781S9HTFZXV1NY2PS4hoLSsjIee/QxnnvuWdtHDBqFhYWRnJxCh+wOdO7UmeyO2bRv356U5BTS0tJwN0yZNJaOBU1paSm7dxexfXsBeXl5bMnJYcuWLezYsYOKigrbv3R4PB4++fhj8rbl8fTTTzNq1OFNSqRK+Rbc7dy50y+v3fz5CygpKSEpyf9H+9Z7vOyy4TpS09L2updC/F5QJ/QGXmTbmu00EBcXT3x8vKU4VVVVbNmyhTGjR7VKm5ctW+a3uWndxO5cYyWzu+66i9dff21PBTM7GIZBWloaffv25fDDRzF4yGB69uxJVlZ74uLiCHO7m9WD85omNTW1FBYWkpOTw4oVK5j/88/8+usv5OTk2Lr+4ZdfFnDxJRfz3HPPMX78+CYlUa2130Y1cnI2k5+fT3JSol8TpFJQUVFBbu5Wy7EyMjL82FIR7II6oTf+ncsQlH/ExMSQnJxsKYbX62XjRuurkw+mcf58/bp1foqvcDVhqNpQsGtXIbfccjNTp061vAiqUXJyMsOGDefEk05kzJgj6NatG7ExMXve+40FXZpb2EUpg+joKDp1zKZTx2zGHjGGK664gh07drB0yRK++OILvvvuWzZs2GDLboX169Zx1ZVX8ty/nmfixJMO2lallN/mjEtKStiyZQv9Dunrl/h7rgHfQsG8PGtbKN1uNxkZ1g94EaErqBO68B+tITw83JYewdo1a6n3eP2+mKe6upqdfhhuB9+K/3btDvxaKAVFxcXcdtttTJkyxfJIgVKKLl27csopp3D66aczaNAgYmNigL0SuA1dyz+eouZyuWjfPosO7bOYMGEC2/K28c033/Lee+8yd86cPQe6tNSWLVv421+vJTw8jAnjx+93+F1r3/G7mRbPEd+f2tpaW+a1m2Jrbq7lqaeoqCjS0lJbpb0iOMmiOLFfYW4X2dkdLcdZt24tJSUlfh9JUUrh8tOWng7Z2XTv3v0Az+2bXvjHA//gzTf/aymZK6Xo3r0H991/PzNmfM7jjz/O6FGjiImJwdS+k878PeerG55HGQYdO3bksksv4f33P+CtadOYOPFkoqOjLcXfsmUL1193HXMPsr8/IjyMoYcO9dt1ttYWsNWrV1teR5GYmEhaWnqrtFcEJ0no4oC6de9mOcaWLVvIydns9y1CkZGRpKT6pwczatQoMjOz9tub9Hq9vPjCi7z88kuWhtnT0tK44cYb+eyzz7jrzrvo3asnShmtksT3pzG5x8fHccrJJ/PWW2/x3/++yahRoyyNuqxdu5Ybb7iRdes3HDCpjx031vLUz75ERESQlpbm99fP4zVZuHCh5TgZGRmkNtTLF2JfJKGLA+revQcxDcO8LbV7924WLVrk13ZqDdFRkfTr18/22DExMZxyyqmEufedvAwF0z+dzqOPPkJNTU2LnsPtdjN+/Hjefe89HnnkEXr16gnK+XPZ99aY2GPjYjnzzD/x/gcfcs+999KuXcvndefP/5m777qT4uJ9j+BoYMCAgRx22OG2X09aWtoBR13soBQUFdnz/u/WrRtxcQ7UoBdBI6gTulKgwER2cfhN586dSU+3NsyntWbunDmWKq011bix4ywPB//RsGHDGHX44ft8kxkKVq1azT333NPiOdLk5GTuuutupkx9iyPHjcPlcgdUIv+jxsTerl0Gd95xJ9Omvc2YMWNQLZxT+eijj3jhxRfwev93mkJriI2J5qyzzrL91L5Dhw6lY3a2f1e441tDsmlT00/725++fQ8hPEyWPYn9C+qEDoCSbWv+ooH09HS6dO1qOdbPP/9MXt42v9bP1sCIkSMYNny4bTFjY2O5+pprSE5O+p+ekW87UiUPP/wQK1Ysb1H8Xr178+prr3HnnXeSmpoS0In8j3TDHPuRR47jrWnTuPTSy4iIiGh2HI/Hw7+ee44ffvh+n+8PDZw08SSOOvpo29oeERHBn/70J6KiIv3e4/1x5o+UlpZaihEeHk6//vaPPonQEvwJXfiN1hAbG8OAAQMsx8rJyeHnefZX/Ppje1OSk7nm6mss759vdMGkSZx00kn77MUp4P0PPuCjjz5qUezDDz+cyZOncNqpp2K4XEE7lGpqyO7Qgaeeeorb77iD2NjYZsfYuXMn//znP9m5a9f/DL1rDclJSdxx+x106NDBljaPHz+eE044we/7z0tKS/nu228tx0pNTaVXr95+bK0IBZLQxQEpYOSIkZYPaamrq+OzGZ9R6+djKzUw8eSTueyyyy2vYD7qqKO5/fY7iIr8316coWDTps088/RTLSq+cvTRR/Pa668zfNjQoOqV70/j3Pptt93Ggw89REJCQrNjzJo5k8lvvrnf+KNGj+auu+5u0ReGvfXo2ZO77r6HpET/VohTwKJFi1myZInlWH369KFjx44ytygOSBK6OKgBAwfYsh/9hx9+YM2a1f4ddtcQERHO7XfczkUXX9ziuuUjR47kmWefIbtD+30mXNPUvPbaayxbtqzZsceNO5KXXnqZ3r16hUQyb9RYu+Dqq6/m/gceaHbi9Xq9vPLvf7Nm9Zp9vkeUgosuvog77ryzxeskunbtyjNPP8PQoYf6/bX3mppPPvnY8nA7wLBhw4mLjQnaURzROiShiwPSQHZ2R/r3tz7snp+Xx4cffuj3XobWkJqSwhOPP8Fdd93drC8jYWFhnHrqabz2+hv079dvnx/6hoKVK1fy1ltvNbttgwYN5tnnnqNHj+4hlcwbae1bsX/VVVdx0803N3sh24b163lz8pt49/HiNH5huOGGG3j88SfIzs5ucly3281RRx3Fm29O5vjjj/d7YjQUrF+/nhmfWT/2NSoqisNH2b/KX4iA4jU1XlP38po6z2tqLQ//PLTW+rHHH288BMfSo2/fvnrTps1aa/+329Ra19fX61k//aQvueRS3blzZx0eHr7PdkVEROhDDx2qX375FV1UVHzQ9t122+3NvvasrCz9zTfftsq1O/0wtdalpWX6oosubvbr1LVrV7169Zr9vk6mqbXXa+oFv/yiL7roYp2WlqaVUv8TxzAMnZCQoEePHq3/9a/n9fYdO1vttTe11g8+9JAtfzP9+vXTW7fltYn3jYOPCq+pD/cG+bfsUNgDYTY8hB+NPWIsqampls+lXr16Ne+++y633nar39usNRguN2NGj2bE8BHkbNnCypUrWLRwERs3bqS+vg6lDDIzMxkzZgyHjxpFZqZvT/X+/q4NBRs3buKjjz5sVlsiIiL4+623ctTRR/ulZ96whfO3a2f/hWia87MtpRsK0dxzzz2sWrWSBQsWNPl3N23axEcffcQdd9y+79gNFzFs6FBeeukllq+4mh9++IHly5ZRU1ODUork5BQGDhrIgAED6d27N8nJSQCtMipiKNi4aVOLRnD2ZdSo0bRr1y4kR3SEvYL6WJOGb1PdgO8B6zVKxT4pBZWVlZx55pl8+cUXluP17t2bTz75P3r16tmqH1LGXgeZeL3mnlO8XC4DQ6kmJTZDwUsvv8K111zdrPKufzrzTF577TXi4uJsTZ5K+U6By8/PZ9PmzdTX1xEXF0+PHj1ISkz43TU1rh7fvbuIDRs2UFlZQXh4BN27d6ddRjqgbJ8OMRR8On06F06aRElJSZN/b9iwYXw243PS0lIP+Hqpva7Ls/c9NQyMhhvujy8sB6a5/777+cc/HrB8UlxUVBTvvPsuJ0+cKAndvyqB44C5Ln8u8vGzUJlDD947EAR8xT1iOOGEE1pcPGRva9as4ZVXXqHehtO7mmPvOuiGYeByuRpKl6omlVZVCioqK/n0//6vWcm8ffv23HTTTcT7IZlXVlTy/PPPc8IJx3PiCccz8aSJTBh/HKef7lsHUFxcjKEaToHbuYsXX3yRU085meMnjGfiSSc1/M6JvPb6G9TW1tpeb1/j2yJ2zjnnNuv3VqxYwbx58w76h6357b7+7p42VNlr7ZK5hoJFCxfx3/++Ycuxr3369GH48OGyul2EPq9vDr2b19S5ATAHE9IPrbVes3ad7tq1qy3zgqmpqfqrr74OqnlBrbX+deFCnZaW1qxrvenmm7XH67W9PXX1Hv3AA//QERER+3ze8PBwPeH44/X3P/ygP//iCz127DgdFha2z5+NiYnVzz33L+3xmn553RYvXqKzszs263W75pprtdcP7fHXw9Ral5WX63POOdeWvxFA33vvvdoMor+RIH6ExBx6qPTQhZ+ZGrp168px48fbEq+wsJCHH36IvPwCv25js9uc2XPY1YwjWrOzs5k0aZLtp8AZChYvWsSLL75AbW3tPn+mrq6OL7/4grPOPJPzzjuPmTN/pL5+33UAKisrePrpp1izZo3t98PU0H9Af84444xm/d7s2bPZVbjL76f02WnatGl88snHtsRql5nJxIkny/CjaDJJ6KLJ3C4X55x9jm0nX82aNYsnn3yC2tq6oPjQrq/38PPP85r1OyeceCJ9+/b1y/zn7Nmz2b59+0F/rrCwkOKiooP+3JYtW1gwf779DcU3p332Oec063SznJzNrFu3PigSmqFg/vwFPPpIyw/o+aPxxx1Hv/79Ze5cNFmoJHR5y7cCDQwbPoyjbaqprbXm1f/8hylTptgy3+hPSkFRcTGrVq1u8u9ER0czceJE3BaOGD2QnTt32hrPNE2Kig+e+FtCA/3792f48BFN/p3S0tIW18hvTYaC3K1bufOO29m8ebMtMRMSEjjvvPOJCLdWoVG0LaGQ0D3ItrVW4TuiNIoLL7yIuLg4W2KWl5dz33338dVXXwf00LsC8vLyyM/Pa/Lv9OrVi6GHDvXbt0276po3crvdZGS0/CjUA9EaYqKjOG78cc1aWLlq5cqA7qEaCoqLS7j77rv54YcfbIt7zDHHcvioUdJTEc0S1Ald+R6NC0hEK9DAuHHjbJtLB8jL28YN11/PT7PnBHRS37Ilp1lbr4YMOZTUtDS/rbIed+Q4unTpYlu83r17M+pw/1YkGzF8RLPqvK9bv75hb7lfm9UiSkF5RQX3P3A/0956y7ZRpoSEBC6//HJioqOk1KtolqBO6KL1aQ0xMdFcecWVts2lA6xdu4a//fValixZGrBJfXvB9v0uKtuXQYMG4q89raaGvn37ct3119ty/nt8fDw333wLnbt09luPWAMdO3Vq1sjC9u3bqaio8E+DLFAKamvrePzxx3npxRfx2LgF86STJjLmiCOklyKaTRK6aDZTwxFjj+D005u3avlglixZwm2338aOnYG5snnHzh1N/tmoqCh69Ozp1/Yopbj88iu4/fY7LB0Xm5KSwj/+8SDnntu8veLNpTUkJSXRuRmjCuVlZVRWVgbcwjgFvPfuuzzz9NPU1dXZFrddu0yuvvpqolvhnHYReiShixaJCA/n2r9eS7du3WyN++033zB1yhSnL2+fTG/Tl2rExMSQlZnl1/ZoDVFRkdzy91t4/oUX6dOnT7Pmp5VSDB48mP/851WuvvovhIWH+T2JRESEN6uHrjUBt2DSULA5J4cnn3yC8vJy2+Iqpbj44osZPmJEQK8bEIFLErpoEVPDgAEDuObaay2flb43r9fLO++8zY4dOwOyl95UCQkJxLfgTPDm0hrCw8I5/7zz+PiTT7jmmmtJTEw86O+lpKRw8y238MGHH3HaaadiuNyt0iNUQGa7zGb/TqCZMWMGK1assDXm0KFDufKqK3G75GNZtExQv3MaVsPJojgHTZp0IeNtXCAHvgNcli1bFpAf5E0VFhbe4rPYm6vxD6BXz548+dST/Pm88w76O38+7zwefvhhuvpxznx/IiMjW/cJbaQUVNfU8t233zar/O/BxMcn8Pdbb6VTx47SOxctFtQJvYG34SFamdaQkpzEnXfeRadOnWyLW1lZyeZNm5y+PEvKykpbfTGXqSE8LIzkpKSD/myXzp1xu1yOJI/mrEUIROXl5WzOybE15sWXXMzEkyZKz0RYEgoJXTjI1DBi5AhuvuUWwsPDbYtbVV3l9KXtQ9M/bisqKti9e3ert7De421ScZOcnC2OJHOP12R7QUGzfieQkpwCPB4PtTZVgwM47PDDufmmm4mICJeFcMISSejCMgUkJibachJbIzu/HNglLq7pK8krKipYv35dq7ZPKSgrK2Pt2oM/7+rVq6iurm7VdQqN7du4semjL1FRkURGRLReIw9CAy6Xy9Z1IzHR0UTHRAfUFxcRnCShC0sMBfn5BTz//PP7PSSkucLDw8nK8u8K8ZbIzMzEaOIhK6ZpsmrlylZtnwK2FxSQl7ftoD+7eXMOu3btatV1CgrYsX07uVtzm/w7KSmpxMbFBVSyi4mJsbWi3syZs3j//feDes2ICAyS0IUlGnhr2lv8smCBbTE7duxI//4DnL60/9EhO5uYmJgm//yCX36htKy8VXvBOVu2UNSEg1h27dpJQX5+6zWsweLFi9m1s+mn1XXsmE1UVOBUTGssrHS4jRX16uvrePmll9iSmxuwRZVEcJCELlrMULBx40b++8Ybtq74Pe648XTu3CngVvt27tyZjIyMJv/80iVLWLFiRav2vMrLy5pUtczj8VBrY0GUpqiv9/DlV1/i8TS92l6/fv0Jc/vncJuWUvhO0WvXzr5e+rJly3h72tsBNRIhgk8oJHSTwFo302Zo4L1332P16qafQHYwnTt35tLLLvXbCWVWrjU9PY3u3bs3+XeKi4v57LPprfrFJD4uvknzu2FhYURGtt7ctKFg3bp1zPzxxyb/TmRkJP0H9G+1NjaVqWHIkMGcfc459sU0TaZOnUJOTo700kWLhUJCl21rDjAUbNmSy9tvT7OtkldMTAy33nobgwYNCrjeeeNJc805/hPgow8/ZOOGDa32IT1w0CD69et30J8bPHgI3bv3aLVvwlrDe++9R25u0+fP27dvT9++h7RSC5snzO3m+uuvZ8yYI2yLuXr1aj768COnL00EsVBI6MIhn02fblvvPCwsjBtuuJGLLrrI1tXydhs7dmyzjo5dt24d/33zv3htnJLYH1NDVlYmd951F9nZ2fv9uR49enDX3XeTmpLcKnPThoKVK1cwdWrzSvoOGzacDh3aB9yXO/C91p07deKpp57ikEPs+dJhmibvvvsOBdt3BHWVROEcSeii2ZSC4pIS3v/gfbxeewZHzj7nHG6+5WYiIiMCZgHUH2lgwMCB9G3mB/h/33iDn+f93Cq9dK1h4sSJvDVtGhdffAlDhw5l6NBhHHroUIYPH85VV13FW9OmMW7c2FZJlL7KajU8969/sakZxYLcbjfHjT+OcBu3h9nN1DB06KE8+tjjpKen2xJz6dKl/PDD97LiXbRI69SmFCFFAfPmzmPRwoW2xBswYAB333U3CfHxAdkba6Q1pKYkM/Gkicz/+ecm/15+fj4PPvggb05+k/S0NL9fo1IGY0aPZuTIkZSXVzS0XWMYBnGxsbjdrVchTgEfvP8Bb0+b1qzf6969O0ceeWTrNNICU8OECeP561//xn333Wv5C25dXR0ffvABp556GlFy4ppoJumhi2bzeE0+/fRTW0qbRkVFcdNNN9GzZ4+ATuZ7mzhxYrNODAP4+uuveOSfj1BdXdMqw6mmBpfLTVJSIklJiSQnJ5GYmIDRiuVeDQVz587j/vvva/Z75aSTJtIxSOqauwyDy6+4nDFjxtgSb/acOaxevUp66aLZJKGLZjEU5Obm8sMP39sSb/yECZx62ulBs03B1ND3kL6ccsopzfs90+Tll1/iX8//i/r6+labI/UdP/rbo7UYClasXMUNN1zPxo0bm/W7WVlZnHvuuRhBMpFsashIT+e6629o1vqK/dm5Ywdff/W105clgpAkdNFs8+bOZVMT6oUfTEJCIlddeRXxcbFBNbTodrm48KKLml3Nrrq6mocefJDnn3+eutq6kF34ZChYsWIl11z9Fxa0oODQGX/6EwMGDAiK3nkjDRx7zDEcd5w9Jw9+9fVXlJSWhex7RPiHJHTRLPUeL998+w2e+qYXB9mfo485mjFHjAma3nkjU8OQwUM4/4ILmv27ZWVl3HvPPTz40IOUlZaF1J5jhW8R3OzZc7j4kouZNWtWs2N069aNyy+/AneAFZM5mMYKchdfcjGxsbGW4y1ftozVq1fLsLtoFknooskMBXl525g3d67lWNHR0Zx//vlEB1BZz+ZwuQyuvPJKBg4a1Ozfraio4NFHHuGaa65m/XrfHvVg/+A2FNTW1jL5zclccMH5/PrLL82O4Xa7ufrqq+nX75Cg6p030sCY0WMYPXq05VhFRUXMnPmj05ckgowkdNEsS5YsbVZxkP0ZPGQIY8YcEXS980amhq5dunDrrbe2qEdWX1/PW2+9xVlnncm7771PdU11UPbWlfI91q3fwA03XM+1115DTgvPCj/uuPFceNFFTl9Si2kN8fFx/OnMM3G7rW8g+umnn6isat0T8URwk4QumkwDP/00ixobzoI++eSTW62wiT9fj9NOO41LLrmkxcVwlixZwmWXXsKVV17Jz/MX4PV4gqLHrpSvV75z5y5efPElTj31FF555ZUW73zo0qUL99x7DynJwf2eADjm6GOaVSJ4f5YtXcqWLTkB/14QgUMSumgS31nW5Sz89VfLsTLateOYY45x+pIs0xoiIyK49dbbLF1PRUUFU6dM4dRTTua66/7G3LnzqKmtwWhImoFC7WmPJj8/n3//+z+cduop3HD9daxetarFJYDj4uK49977GD58eFAOte/N1NAhuwPjbNhDv2PHDpYvX+70JYkgIgldNIkCtm7dyrp16yzHGjZ0GL169Q7a4fa9NZZbffSxx+jf39pBIjt27OCll17ilFNO5vzzzmfK1KlsztmCp6HXbjQMb7eWxgTeOGJQWlrGnLlzuevOuzjh+OO59tprmDdvHvUWFkiGh4dzw403cs659h104jSXYXD8hOOJjIy0FKe+vp4FCxaExN+JaB1SKU402fLly9i1q+lnWe/PuHFjiYmOCvreWCNTw+BBg3jm2ee4/LLL2LSpefuu/6iwsJCPPvqQ6dM/pVOnTgwfMYKxR4xl0ODBdOyYTXJSMuHh/i2Japqa8opKtm/fztq1a5k3by4/zfqJlStXUFxcbMtzuFwurrjiSm6+6WbCw8ODfqh9b4MHD6ZLly6WzzpYvGgR5eUVxAXZ1k7hjFBI6Bo5PrVVLF26tElnbR9IUlIShx0+yulLsZ2p4cgjx/H8889zzTVXs9mGffr19fVs2LCBDRs28M7bb5OYmEhWVhY9e/WiV89edOrUibT0NJKTU4iIiCA1NRW32011VRVFRUWYpklYWBipaWm43W5KS0spKysDNFFR0SQnJ2MYBmVlZZSVllJVVcWuXbvIy89j86ZNrFq1ii1btrBz505b1k3szeVycemll3H/Aw8QFxcbMl/uwPdeaJeZydChQy0n9A0bNrBjxw5frQanL0wEvOBO6L7hR43GWpYRB1VTW2fLyWo9evSkV6+eIfnhpDVMOH4CL738Ctf97W+sXbvGttimaVJUVERRURErVqzY8+9ut5uIiAjCwsKIj4/H5XJRW1tLeXk5WmtcLjcJCb5/r6yqoqqyEoDw8Aji4uMwlKKqqoqqqirq6+upra217Tjc/YmIiOCKK6/kvvvuIzkpMaSSeaMwt4sxY45g6tSpll7P3bt3k7N5Mz26d3P6ktqCoH8nBndC9wn6mxDolILi4mI2NbOE574MGjyIxMSkkB0+1BrGH3cs/33zTW668Qbm2rBn/0A8Hs+eUZOSkpJ9/kxp6b7+vYKiot2t/vokJCRw0803c/31NxAbGxOSybzRwEGDSEpKoqioqMUxqqqqWLNmDcceG/yLSAOct+ER1GRRnDgoBWzbupW8vDxrcZRi2NBhuAJp6bYfmBpGjhjO5ClT+fOf/0xYAB8B2pq6dOnK88+/0LB3PyZkv9SBr5fRpUsXunTpYjnW8hXLQ/qLT4AIialbSeiiSTbn5FBeXm4pRkJCAv369XP6UlqFqaFb1y68+OJLPPTww2RmZjrdJMe43W5OOOEE3nn3Xc477zzc7rCQTubgG6lJSkqib99DLMfatHETVVVVUmBGHJQkdNEkW3NzLS+Iy8zMJLtjR6cvpdWYGuIT4rnxxht59733OP6EEwgPD3e6Wa0qOzubBx96iDcnT2H4sKHB3wVqBrfLsOULbEFBPuXlZVJgRhxUcCd03yCJBlkU508abFm13blzF5KSktrUh7rWoJTBmNGjmTp1Kk8//Qz9+vXDMIL7T+9g4uPjuWDSJD786GNuuflmUlKS2+Swca/evYiIiLAUo7CwkB07djp9KaFOhtydpnwPDZhOtyWU1dTUsnWr9frtvXv3JioqMuSHW/fFbBiC/cvVf+H/Pv2U++67n549e4ZcYo+Li+PUU0/j7Xfe4ZWXX2HY0ENBGW3ynoNv3UBiYqKlGGVlZeTnW1u/Ig7KVOAN9lGQUFjlLvxIKd9K2/yCAsuxunfvjiIEvga3UGNS69qlC3feeSfn/vnPfPTRh7z/3nssX76c2tpap5vYIkopMjLaccwxR3Pe+RcwevQoYmN8i97aYq+8kQYyMjLIyMhgx44dLY5TW1vL9u0t/33RZEH/bg3qhN7wAWmiZMjdXxS+WuPFFrbegG/vcXbHbKcvJyCYGlCK7t26csvNNzNp0oXMnPkj0z/9lNmzZ7Nt2za83sDfQRMXF0f//gMYP2E8J500kUP69iUiItw3ZBb0H432iIuLo127TJYtW9biGFprduzY7vSlhDpTS0J3VuOrr2TI3a9KS0str3CPiYmhXbt2Tl9KQPElPUVGRjpnn3UWp516Gps2b+bnefOYOWsmvyxYQG5uLhUVFX4v9tIUYWFhpKamcsgh/Rg9ZjRjxhzBwIEDSU5KQinf9Ugi/43Wvi+y7Tu0txxr544dwZ9tApuJDv596EGd0BvmO0xCoCBAICstKaG6utpSjNjYWJKTU5y+lICkG7oG7rAwevfqSe9ePTn/gvPZsWMnGzduZMWKFSxZsph1a9dSUFBAcXExFRUV1NfX4/V6bU32hmHgcrmIjo4mLi6OtPR0OnXsxICBAxg4YCC9evemY8eOxMXG+Nre2H7JNvvkMpQtX2QLCwvxes2QW3MRQHxrsYJ8Ej2oE3oDjSR0vyorL6Ours5SjMSkJOLi4qSXcRCNPVzDcJGVlUn7rEyOGDMa09RUVFZSWlpKUVER2wsKKCkpYdeuXZa/bDVShiI1NY2E+Hgy2rUjNTWVpKQk4uPjidjrMBgZUm+edu2s1yAoLS3F4/G0uW2PrciLCv48EtQJXfu+TZlKtq35VUlJiaUjMgGSk5KIjo52+lKCit57Uk8p4uJiiY+LJbtDewYOsHZUa5Pb0NAOSeAtl56ejsvlsrQuorjY9zcYERFap9IFEBMd/FO3QZ3QlRzO0iq0qS0P66ampoXcEZmtTYfCqp02KDXVdxpeVVVVi2NobQbEOooQ5g2FxdVBPSFj+B4m0kP3q5LSEssfJpFRkTL/J9qkiIhIXC6XpRiVlZVBu60xSITEWqyg/oRtKO1jAtbGg8UBWdlD2ygpKQmXK6jfbkK0SHx8HJGRkZZiNC6EDPI1W4HMQwh0DIP6E7ZhCFISup+ZpvWppfj4ePkwEm1STEys5fKvWluf9hIH5EUSusPUntKvMhYV4JQcFSWECFx1yJC7wzTU+RK6Pft2hP9I50IIEbjqQqGWe9An9IZdmTVON0UIIUTQqtUab7DPagR3Qld7KlRJD10IIURL1RACc+jBvQ+dPSO5Ld/gKVpHsI9lCSFCWY02ZA7dUXuts6p0ui3iwGpqZFZEtE11dXV4PEHf+Qt1VUrjUTLk7py9Vk5XON2WUBYXF2c5RuGuXXilfqhog0pKii3X24+Kira89U0cUKURAqd2BnVC30slIXAzAlVmu0zL286qq2ts2c8uRLCpram13ENPTk4iNjZWNov4T7m51xxusAqVhF5GCOwhDFRut/WlFrt3F1JXV4dsRxdtTVFRkeWyrYbhktLJ/lUWAvk8pBK6TFL5SUJCguVjG0tLS6UWtWiTioqLLPfQY2NjLNeDFwdUpjWoIM+IQd78PSqRanF+ExcfT1hYmKUYu3btorS0VBa7izZna+5WyzGSk5MJCwuT0wr9pxTAFeRDiKGS0MuRveh+Ex8fb/lwifLycnbv3u30pQjRqrymJj8/33Kc5JQU3G7pofuJByhyuhF2CKWELnvR/SQhIZ7omBhLMSorK9m1c6fTlyJEq6qrq6OgwHpCT0tNk9Et//EAxU43wg6hktCr8c2jC5tpIDY2jqSkJEtxampq2LrV+tCjEMFCKaioqLClh94us53TlxPKaoASpxthh6BP6A1nolcTIkMmgSg2NpbMzEzLcTZv3uT0pQjRahSwu7CQXbt2WYoTGRlJ+/btnb6cUFZJwxx6sAv6hK4ApagFCp1uSyjS2veB0jE723KsNWvWUlNb5/QlCdFqNufkUFRkra8RGxtL+yxJ6H5URoiM8AZ9QgdQGhPY4XQ7QpWhoGPHTpbjbNiwnuLiYtmLLtqM1atWWa4Sl5ScTGpamtOXEsp2o6kK+k3ohEBCV2pPMQDrE1Viv7p262a5wEx+fj5bt26VxT2iTfCaJstXLLccp31WexITEkIh3wSqnSiqQ+GDKegTuvFbdy8PKf/qN106dybG4kr3kpISViy3/gEnRKBTCoqLS1ixfIXlWF27diU6Jkb2oPtPvlKhUZgs6BP6XvLwrVYUftC+QwfatbO20tY0TeYvmC+HtIiQp4DNmzbZshC0T98+uIwQ6D4Grq1aExJHPIdSQt9OiCxsCDQaSElJoVu3bpZjLVm8hJKSEplHFyFvyZIllhfERUZG0qdPX6cvJZR5gVwI/ipxEFoJvRBZ6e4XWkN0VCSHHHKI5Vjr1q1lzZrVofBlWIj9qvd4mDVrJtriOHlqairdu3d3+nJCWRUQMgUyQiKhN/zJlAHbnG5LKBs0eLDlhXElJSX8NOsnpy9FCL8xFOTl5bFgwQLLsbp3705mZjtZEOc/xYTQguqQSOgK0L696FK5xI/69x9Aamqq5Tjf//A9ZeUVMuwuQtaCBQvYsmWL5ThDhgwhLi5OFsT5Tz4hVJQsJBK6VqB8b/i1TrclVGmgY8eO9OzZy3Kshb/+yrJly2TYXYSkunoPn02fbvm44LCwMIYPHyF/J/61Cd9ZICEhJBK6+7eu3jpkpbtfaA3x8XEMHz7McqyioiI+mz4dWewuQo2hYMP69cycOdNyrHbt2jFg4ACnLynUrQXMUBkBCYmEvpccQmj4JNAoYMwRY4mKirIca/r06WzNzUV244hQ8+mnn5Kbm2s5zqBBg+jUqbPMn/uPB1gN4HaFxgdRyCT0hjd9AWB94krs1+DBg+jSpYvlOGvXruHTTz91+nKEsI2hYNu2PN577z1b4o0dN47oqEiZP/efEnyjuiEjZBK6ApSXMmCl020JVaaGzMwsRo8eYzmW1+tl8uTJ5OcXSC9dhIyPP/6YZcuWWo6Tnp7OuLHjnL6cUJdLCG1ZgxBK6NoL2oUGFjvdllDmdhkce9yxREREWI61ePEipk2bJkOKIugZCjZt3sx/Xv0PXq/XcrzBg4fQs1cv+dvwr5WEyDnojUImobvD9nTzlhFCqxYD0WGHHUavXr0tx/F6vbz88kssXbJUeukiqNXXe3jpxZdYvsz6WQVKKU488UTiYqV+u58tBMxQOgAkZBL6XtYj8+h+Y2rIysxiwoTxtsTbuHEjDz/8ECUlpbIvXQQlQ8FnMz7jtddfAxv61B07duSYY49x+rJCXTmwCCAshHoToZjQCwHrk1hiv5SCU0451ZYiMwCffPIJTz39FHW1dZLURVAxFCxatJi7776bYot12xsde9xxdO/eQ7Z1+tcWQmxBHIRYQm84/84LzHG6LaFM4ysDO3bsWFvi1dfX8/RTT/HU009RXV0tSV0EBUPBosWLuebaa1i5wvoxqQDx8fGceeaZhLldTl9eqFuoNbtC7TtTSCX0iN+GTuYjB7X4TeNhLeedfz7R0dG2xKyoqOAfDzzA/fffT7mUhRUBzlDw00+zufjii/l53jzb4o4dO5bDDjtMFsP5lwn8pBSmy/r6xYASUgl9LxuAVU43IpRp4Mgjj2TMmCNsi1ldXc0zTz/NU08+SX19vdOXKMQ+GQoWL1nKNddczbKl9s3uRUdHc+GFFxEXGyuL4fxrJ75OHyostHoOIZfQFaB9J69Zr70o9ktrSExI4LLLLrOtlw5QV1fHc889y1dffiUr30XAUQpKS8v4xwP3s3y59RXtexs37kiOOfZY6Z3731JC9CCvkEvohqEaDzP4Adm+5lcaOG78cRx73HG2xi0uLuaVV16WE9lEwFHAt999y1dffWVr3Pj4eP7yl7+QEC8nq7WCb4GqUHyZQy6h72UJUjXOr7SG+Lg4rr32WlJSUmyNPXfuXJYtWyonTYmAUlfv4ZOPP6aqqsrWuKeeeipHHX209M79rxBfZw93CA4BhmRC14DyHVz/tdNtCXWmhiOOGMsFF0yyNW5xcTHLl9uzclgIOyjln/dl586due6666Vue+tYCKxxuhH+EpIJ3W2oxm+6XyKnr/ldeJibv/3tbwwdOtTWuNsLCpy+NCH2UEB5eRnFxfZ9pISHh3Pd9dczePBg2Xfufxr4DKgMvb65T0gm9L0sA35xuhGhztTQpUtn7rrrbluH3k0dSkUZRSjQGrSN3ehTTz2Niy66GJlbahVbgW/At9YqFIVsQle+v7lK4EN8+w6FH5kajj/hBCZOPNm2mBkZGU5flhB7aCA2NpbExERb4qWkpHDd9deTmBAvQ+2t4zul2eB0I/wpZBO68duB9d9AaN/EQOCbXyxi7Vp7pqcSEhLod0g/py9LiD20huTkZPr07WtLvLKyMlavlnIZraQS+EArvK4Q7Z1DCCf0PbzkANOdbkaoU8DXX33NwoULbYk3dNgwBg4aJKt+RUCJCA/j5JNPtuX44Pr6eqZOmUpRcYlsz/S/X2gDJcFDOqF7AXwlkd8FdjndnlClFJSVlzNt2jTq6uosx4uKiuKSiy8hKTFBhiJFQNHA+PETGDVqtC3xFiyYz8yZM2UK3b9MfDmgNNTnXkM6oYf/NrSyBN+Kd+EHCvjll1+ZN2+uLfHGjBnDCSecIL1zEXC0htSUZC6//DIiIyMtx6uqquKD99+ntk5KHfvRSnyr20PqqNR9CemEDnsWj9YDU/GVhBU283hNPvrwA0pLSy3Hio2N5aqr/kKi9M5FgNLAhOOP58ijjrIl3g8/fM/KlSuk1LH/vAtsawsfJyGf0PfanvATDVsWhH0MBTk5OXz9tT01fI4bP55jj5N61iJwNZ5j8Je//IW4uDjL8QoKCpgxY4bTlxWq1uNL6CFZGe6PQj6h76Ua+A/SS7fdd999y+bNmy3HiY+P57LLLiM2JkZ65yKg+U4bPIqjjznGlngzPpvBrsJCWRxnv6mGYkNb6SG0iYS+1zaFWYC9pyq0YUpBVXU1n8+Ygddr/WDhI488ijFjjmgrf3siiGkNsTHRXHzxxcTExFiOt2LFcn79daEsjrPXWuAtU4PL1TZe2TaR0AG0735WAy8Cu51uTyhQwOrVa5g/f77lWJGRkZx33nnExkRL71wEBQ0cccQRjDzsMMuxKisr+eLzGXil/qtdTOA/aDa2pVe0zSR0929jWXPwVY8TNpg1ayY7duywHGfIoYdy5FFHSu9cBI3GufRzzzkXt9ttOd7MWbPYuXOHDLvbYyHwNqptzJ03ajMJHfYMvdcDLwA5TrcnmCkFlVVVfPftdzbEUvzpjDNITUmR3rkIOscedyy9+/SxHGfD+vUsWrhIht2tqwH+BeS3tR5Cm0rojTxelgH/Rmq8t5gCNm3axKJFiyzHys7OZvyE452+JCGazdTQoUM2EyZMsByrqqqKH378oa3lIH/4AvgY2s7ceaM2l9BdhsLtqx73OmBPJZQ2av7P89mxY7vlOOPGjaN79+5yfKQISoaCk046yZZDW+bMnk1RUZEMu7fcDuBJoKItvoZtLqHDnmIzO4DHAOvVUNqgeo+XmbNmYprWBjkiIiI4aeJEwsOsz0EK4QQNDBo0mCFDhliOtWbtWtauWSvD7i2jgX9rmAdgtMGM3iYT+l7FZr4EpjjdnmCjFOzatYslixdbjtW9ew9GjrS+SlgIp2gNCfFxjB9vfdi9pLiYXxf+6vQlBas5wMsKzFA+Ue1A2mRCh98tkHsK34pI0US+7Wqr2bJli+VYo0ePIisrU4bbRdAbd+Q4UlJSLMeZN3ee1HZvvt3AQ0B+20zlPm02oe9lM/AAUOJ0Q4LJokULKS8vtxQjPDycI486Cpchb0MR3DTQq1cv+vXrbznWsmVL2V1YKLXdm84EXkbzDfp3I7BtTpv+JHUZCg1o+Bx4CVn13iT19R4WL7I+3J6dnc2wYcOcvhwhLPMNu8czdtxYy7Hy8vLYtGmT05cUTL4FnkXhbWur2v+oTSd08BUdUOABngbsOWEkhCkFRcXFrF69ynKsgQMHkpXVXobbRcg47LDDiI6OthSjrKyMFStWOH0pwSIHuAfYVWO9+nTQa/MJHfbMp+8C7sR3Oo/YDwXk5GwmNzfXcqyRhx1OZES405ckhG369j2Ejh07WoqhtWbRooVSBvbgKoD7gfkAMWFtu3cOktD3aKhQtgi4C5lPP6A1a9ZSUlJiKUZcfLwMt4uQYmrIyMhgwIABlmOtWrWK8vJy2Y++f755c5gGvzuAq02ThN7A7VJoDabmQ+AJfCvgxT6sXbPG8v7z9llZdOvWzelLEcJWEeFhDB5sfT/61m3b2LVrl+xH37//Ax4B6iSZ/0YS+l7cLoVSeDU8C7wJUoXxj+rqPaxfv85ynF69e5OWlibz5yLkDBw4kKioKEsxinbvJm/bNqcvJVAtAG4FdmtZxvw7ktD/oL4ClG9u5m5ghtPtCSRK+RbsbNq82XKsQYMGyfy5CEk9evYkPT3dUozKyko2bNzg9KUEog3ADRrWKwVut/TO9yYJ/Q+i4lXj2enbNdyAr/qQwLcgrrCwkJ0Wj0t1u9307tXb6csRwnYaSEtLI9uGhXGbNsrWtT8oAG40FHO1bpulXQ9GEvo+uJVCAcr3bfBaYInTbQoUBQUFFBcXW4oRHx9Pt+4yfy5Cj9YQGxtLj+49LMfavHkz9R7Zi9WgGLjVUEw3NYS18f3m+yMJfT8MQ+EFlC+ZXwOsdbpNgSA/L4+amhpLMdq1a0dWVpbTlyKEX7gMRe8+1keg8vPzqK6ulpXuvl1Ht5uaaV5TVrQfiCT0Awg3FCagYK6GvyB71Nm6bSter7VeQ2ZWFgkJibLiUISsLl264g4LsxRj586dlJWVtfWV7mXAXabmVQVet/TMD0gS+kG4Dd+yd5fiBw1XAtaXeAcpDZbnzwGysrKIiopq3PsvRMjJzMwkKjLSUozSsjLKysqcvhQnlQJ3as0rksybRhJ6E4S5FB7Tl9SBS4FlTrfJCV6vyc6dOy3H6dC+gwybiZCWmppKfHy8pRiVFRWUlpY6fSlOKQZuNTUvAx5J5k0jCb2Jwly+nrqC2cBF+PZCthlKQV1dHYWFhZZjZWZlOn05QviNBhITEkhKSrIUp7a2lt27rf+9BaEC4DrT5FUlybxZJKE3g7uhV2lqFgOTgK9oQ8VnvF4v1RYXxLlcLst7dIUIdNExMSQmWkvoXq+X6mprf29BaCNwpaGY6jJkmL25JKE3U+NZu8q36v0SYDK+09pCXm1tLZUVFZZiuN1ukpOTnb4UIfxGa4iMjCQxMcFSHK/XS6nFMxOCzC/AhYZiusdEt+VzzVtKEnoLhLl8+9Q15Gv4G/BPoNzpdvmTAmpqaqiwmNBjYmNJTk5x+nKE8CuX20VGRjtLMbTWbWUO3Qt8ApxnauZoZJ95S0lCbyFlqMaz1MuAf+ArQLPF6Xb5m7a4ND0yIoKYmBinL0MIv3IpRYLFHjqADv0ZvUrgGeByYL02pAKcFZLQLWpYrV2PZjJwLjCTNjSv3hLy5yraAnmfH9QWfCOcdwKFLkMRLsncEknoNnD9VoBmHvBn4F/4DngRf+ByuTBcLqebIYTfud3WCsuEMBP4Djhba14HamUbqz0kodskzKUaF8zlA7fgK0Kzxul2BRp3WBhut9vpZgjhdxEREU43IRAVA49o+LOC+V6klKudJKHbzGUotKbOUEwDTsO3Cr7a6XYFirraWurq6pxuhhB+V1VV5XQTAokJ/AycD9yrYKdhKCJk8ZutJKH7gdulUL65oDXAVcBlwFJkbt23qE5qvoo2wOoC0hCyE3gYOAP43ACP9Mr9QxK6HzW8aauBacApwBP43txtlsfjoa6+3ulmCOFXGqipbXNFYf6oFvgUOEPDfUC+y1AoSeZ+Iwndz1yG8g3DwxYNtwOnAx/g264RVAzDsDz/XVFRYUv5WCECmcfjJT8v33KcMIsntjnECywErsA3xD5bgVd65f4nq5NaidtQVFRqb1QUc4DFwHh8e9dHAQG/ekYD0dHRJCYmWorjqwe/y+nLEcJvlPIVYdq9e7elOC6Xi7TUNKcvpzk0vgqarwNTFRRoZNFba5KE3opiYxprwesqU/Oxgu+BE/B9kx0JWDtv0c/CwsKIioqyFMPj8bBjR5uedRBtQGVlJUXFRZZiGIZBdHS005fSFBrYDLwF/FcrNin9W5ls0XokoTugsRJSvdalbpO3TcUXwAR8R7MeBgRcKTWtITw8nOQU62Vbt+aGfEE90YYpoKioiCKLPfSIiAiSUwL63AMvvh75W8B7GjYBpluKwzhGErqDwhre+FrrEi+8ozQzgCPwFac5BgioY8ncbhepKamW42zcuIm6eo/sRxchKy8vjxKLB6tERUWRmJDo9KXsSxW+OfJ3gOlasU1ptFt65I6TT9QAoH5L7OWmL6l/A/QDTgUmAn0IgHl2BXTq1MlynE2bNlJSUkxaWprsYBMhae2aNZb3oaemptoyImYTE8jDN034ATAbkxLT9VvHRDhPEnoAUb/9YdR5TL1Iw2IDXsC3cO5kYAzQEQfvW+cuXXC73Xg8LT8xdsuWLeTk5JCeliYb80XI8XhNFi1aZDlOu8xMEhMTnfwb0UARsAj4DPga2IDsIw9YktADVMPwlQZ2mKb+SPv2c2bjS+7H4VtE1wkIb812ZWdnExMTY+lYx5KSEpYuWcrwYcNas+lC+J1SUFxUxLJlSy3H6tSpE1FRUa09imUChfgKYX0LfK9htUtRWWtCpFR2C2iS0INAw2pRT53Wm92azdo3d5UJDME35z4C6AkkA349+aR9+yzS0tIsJXTTNJk580cuvOgimUcXIUUBK1euZP369ZZj9ezZ03fwk/8TegW+k88WA7OA+Ro2uBRVdV6IcEsSDxbyaRpE9jpa0ANs9Xr1VuBTFHFAF2AgMBQYAHQDUrFxK5wGUlPT6Nq1Gxs2bLAU6+effyY3N5fu3bq2xgeWEK3m+++/o6yszFKMiIgIDjnkEH80zwOUAluBlfgWty3Ct1p9Fwov9eAOlyQejCShBzGXa8+wfBmw1OvVS4EpKKLx9eC7An3xLarrDnTAl+TjgGaXoNIaoqOjGDhoIF9//ZWltufk5PDtN9/QvduVTr+MQtjCUFCwfTuff/GF5Vjp6en06tXbSggvvrLTxfhOgMzBd7bESmA9sE1DsUvhLa+F+EhJ4KFAEnoI2SvBV+JbvLLBNPXXgNIQBSQC7fAl9uy9Hhn4En0ivj3w0fgSvhvfKOIeChgy5FDCwsKot1CT3ev18vY7b3PmmWeSnJIsq91FSPjqq69YvmyZ5Tg9evYkKytrfwvivEA9vlrpFUA5sBvfORH5+HrfucC2hv+/EKjwKryuOnBFSPIOVZLQQ5zx2+K6qoZHPrBIm5p6BW6NYUKE8iXxWHxJPQFIang0/v/x+Hr2sR07dkyMiYk5tKSkJBYLJ8jN//lnpk+fri+66EKv9n1X8Ov8vxB+opXCu2PnLvX6a6+57DgeOCszc11sbMwGranEl7TL8A2Vl+LrdRcDJXv9WxWKakPj0UiVtrZKEnobtdeJRya+oblqfN/y91nGzWvqxsytPv7oo8jKyspe+L4EtFhtbS2zZs00L5g0yat8e/Zc/GFEQIggYCrwbtiwQa1YscKWz9RZs2ZtaaiFboLUQxdCCCGEEEIIIYQQQgghhBBCCCGEEEIIIYQQQgghhBBCCCGEEEIIIYQQQgghhBBCCCGEEEIIIYQQQgghhBBCCCGEEEIIIYQQQgghhBBCCCGEEEIIIYQQQgghhBBCCCGEEEIIIYQQQgghhBBCCCGEEEIIIYQQQgghhBBCCCGEEEIIIYQQQgghhBBCCCGEEEIIIYQQQgghhBBCCCGEEEIIIYQQQgghhBBCCCGEEEIIIYQQQgghhBBCCCGEEEIIIYQQQgghhBBCCCGEEEIIIYQQQgghhBBCCCGEEEIIIYQQQgghhBBCCCGEEEII0br+H6ssGk+T5TseAAAAJXRFWHRkYXRlOmNyZWF0ZQAyMDIzLTA4LTE0VDE5OjE2OjE3KzAwOjAwsNUr+gAAACV0RVh0ZGF0ZTptb2RpZnkAMjAyMy0wOC0xNFQxOToxNjoxNCswMDowMPBgidsAAAAASUVORK5CYII=;" vertex="1" parent="1">
          <mxGeometry x="711" y="366" width="66" height="66" as="geometry" />
        </mxCell>
        <mxCell id="YrKTldFXBiDf7sf4YSAn-17" value="Docs" style="rounded=1;whiteSpace=wrap;html=1;fillColor=#04426B;fontSize=22;" vertex="1" parent="1">
          <mxGeometry x="45" y="38" width="317" height="101" as="geometry" />
        </mxCell>
        <mxCell id="YrKTldFXBiDf7sf4YSAn-21" value="1. Laden und Chunking der Docs" style="text;html=1;align=center;verticalAlign=middle;whiteSpace=wrap;rounded=0;fontColor=#660000;fontSize=16;" vertex="1" parent="1">
          <mxGeometry x="89" y="163" width="110" height="30" as="geometry" />
        </mxCell>
        <mxCell id="YrKTldFXBiDf7sf4YSAn-22" value="2. Vektorisieren der &quot;Doc Texte&quot; (text embedding)" style="text;html=1;align=center;verticalAlign=middle;whiteSpace=wrap;rounded=0;fontColor=#660000;fontSize=16;" vertex="1" parent="1">
          <mxGeometry x="235" y="519" width="146" height="30" as="geometry" />
        </mxCell>
        <mxCell id="YrKTldFXBiDf7sf4YSAn-23" value="3. Speichern der Texte und Vektoren in Qdrant" style="text;html=1;align=center;verticalAlign=middle;whiteSpace=wrap;rounded=0;fontColor=#660000;fontSize=16;" vertex="1" parent="1">
          <mxGeometry x="229" y="281" width="124" height="30" as="geometry" />
        </mxCell>
        <mxCell id="YrKTldFXBiDf7sf4YSAn-25" value="" style="endArrow=classic;html=1;rounded=0;strokeWidth=3;strokeColor=#6F0000;fillColor=#a20025;" edge="1" parent="1">
          <mxGeometry width="50" height="50" relative="1" as="geometry">
            <mxPoint x="-196" y="-41" as="sourcePoint" />
            <mxPoint x="-95" y="-41" as="targetPoint" />
          </mxGeometry>
        </mxCell>
        <mxCell id="YrKTldFXBiDf7sf4YSAn-26" value="&quot;Lernen&quot;" style="text;html=1;align=center;verticalAlign=middle;whiteSpace=wrap;rounded=0;fontColor=#660000;fontSize=14;" vertex="1" parent="1">
          <mxGeometry x="-81" y="-56" width="60" height="30" as="geometry" />
        </mxCell>
        <mxCell id="YrKTldFXBiDf7sf4YSAn-30" value="1. Chat Input vektorisieren" style="text;html=1;align=center;verticalAlign=middle;whiteSpace=wrap;rounded=0;fontSize=16;fontColor=#005700;" vertex="1" parent="1">
          <mxGeometry x="243" y="603" width="132" height="30" as="geometry" />
        </mxCell>
        <mxCell id="YrKTldFXBiDf7sf4YSAn-31" value="2. similarity search" style="text;html=1;align=center;verticalAlign=middle;whiteSpace=wrap;rounded=0;fontSize=16;fontColor=#005700;" vertex="1" parent="1">
          <mxGeometry x="234" y="356" width="144" height="30" as="geometry" />
        </mxCell>
        <mxCell id="YrKTldFXBiDf7sf4YSAn-32" style="edgeStyle=orthogonalEdgeStyle;rounded=0;orthogonalLoop=1;jettySize=auto;html=1;strokeWidth=3;strokeColor=#005700;entryX=1;entryY=0.69;entryDx=0;entryDy=0;entryPerimeter=0;exitX=0.994;exitY=0.58;exitDx=0;exitDy=0;exitPerimeter=0;" edge="1" parent="1" source="YrKTldFXBiDf7sf4YSAn-13">
          <mxGeometry relative="1" as="geometry">
            <mxPoint x="15" y="514.9999999999998" as="sourcePoint" />
            <mxPoint x="15" y="576.9099999999999" as="targetPoint" />
            <Array as="points">
              <mxPoint x="15" y="494" />
              <mxPoint x="194" y="494" />
              <mxPoint x="194" y="577" />
            </Array>
          </mxGeometry>
        </mxCell>
        <mxCell id="YrKTldFXBiDf7sf4YSAn-33" value="3. Prompt um Suchergebnis erweitern" style="text;html=1;align=center;verticalAlign=middle;whiteSpace=wrap;rounded=0;fontSize=16;fontColor=#005700;" vertex="1" parent="1">
          <mxGeometry x="15" y="515" width="177" height="30" as="geometry" />
        </mxCell>
        <mxCell id="YrKTldFXBiDf7sf4YSAn-34" value="4. Prompt an LLM Model" style="text;html=1;align=center;verticalAlign=middle;whiteSpace=wrap;rounded=0;fontSize=16;fontColor=#005700;" vertex="1" parent="1">
          <mxGeometry x="240" y="687" width="132" height="30" as="geometry" />
        </mxCell>
        <mxCell id="YrKTldFXBiDf7sf4YSAn-35" value="" style="endArrow=classic;html=1;rounded=0;strokeWidth=3;strokeColor=#005700;fillColor=#a20025;" edge="1" parent="1">
          <mxGeometry width="50" height="50" relative="1" as="geometry">
            <mxPoint x="-196" y="-7" as="sourcePoint" />
            <mxPoint x="-95" y="-7" as="targetPoint" />
          </mxGeometry>
        </mxCell>
        <mxCell id="YrKTldFXBiDf7sf4YSAn-36" value="&quot;Fragen&quot;" style="text;html=1;align=center;verticalAlign=middle;whiteSpace=wrap;rounded=0;fontColor=#005700;fontSize=14;" vertex="1" parent="1">
          <mxGeometry x="-81" y="-23" width="60" height="30" as="geometry" />
        </mxCell>
        <mxCell id="YrKTldFXBiDf7sf4YSAn-37" value="Retrieval Augmented Generation" style="text;html=1;align=center;verticalAlign=middle;whiteSpace=wrap;rounded=0;fontSize=20;fontColor=#04426B;fontStyle=1" vertex="1" parent="1">
          <mxGeometry x="-194" y="30" width="225" height="30" as="geometry" />
        </mxCell>
      </root>
    </mxGraphModel>
  </diagram>
</mxfile>
